<?xml version="1.0" encoding="utf-8"?>
<!-- Generator: Adobe Illustrator 16.0.0, SVG Export Plug-In . SVG Version: 6.00 Build 0)  -->
<!DOCTYPE svg PUBLIC "-//W3C//DTD SVG 1.1//EN" "http://www.w3.org/Graphics/SVG/1.1/DTD/svg11.dtd">
<svg version="1.1" id="Layer_1" xmlns="http://www.w3.org/2000/svg" xmlns:xlink="http://www.w3.org/1999/xlink" x="0px" y="0px"
	 width="15.992px" height="16px" viewBox="0 0 15.992 16" enable-background="new 0 0 15.992 16" xml:space="preserve">
<title>Shape</title>
<desc>Created with Sketch.</desc>
<path fill="#FFFFFF" stroke="#FFFFFF" stroke-width="0.25" stroke-miterlimit="10" d="M7.995,0.117C3.648,0.117,0.112,3.653,0.112,8
	c0,2.298,1.011,4.482,2.774,5.994l0.081,0.061c1.428,1.197,3.172,1.828,5.048,1.828c1.802,0,3.583-0.635,5.008-1.789l0.045-0.035
	l0.052-0.014c0.006-0.002,0.02-0.014,0.036-0.039l0.018-0.027l0.026-0.023C14.904,12.426,15.88,10.254,15.88,8
	C15.88,3.653,12.342,0.117,7.995,0.117z M12.807,13.949c-1.359,1.094-3.063,1.695-4.787,1.695c-1.774,0-3.431-0.58-4.792-1.676
	l-0.104-0.084l0.009-0.131c0.044-0.629,0.375-2.777,2.755-3.986l0.145-0.074l0.127,0.098c0.53,0.412,1.167,0.633,1.837,0.633
	c0.657,0,1.319-0.232,1.861-0.652l0.125-0.1l0.145,0.074c2.264,1.162,2.695,3.172,2.775,3.98l0.014,0.137L12.807,13.949z
	 M5.251,7.439c0-1.513,1.231-2.745,2.745-2.745c1.513,0,2.745,1.232,2.745,2.745c0,1.516-1.231,2.747-2.745,2.747
	C6.483,10.186,5.251,8.955,5.251,7.439z M13.495,13.307l-0.332,0.342l-0.1-0.467c-0.229-1.072-0.867-2.559-2.618-3.545l-0.261-0.148
	l0.188-0.234c0.404-0.502,0.629-1.153,0.629-1.833c0-1.646-1.341-2.986-2.986-2.986c-1.646,0-2.985,1.339-2.985,2.986
	c0,0.644,0.219,1.279,0.634,1.841l0.171,0.232L5.585,9.637c-1.885,1.053-2.445,2.67-2.611,3.541l-0.09,0.471l-0.339-0.34
	C1.129,11.895,0.352,10.01,0.352,8c0-4.215,3.429-7.646,7.645-7.646c4.215,0,7.647,3.431,7.647,7.646
	C15.644,9.992,14.879,11.877,13.495,13.307z"/>
</svg>
