<?xml version="1.0" encoding="UTF-8" standalone="no"?>
<svg width="24px" height="25px" viewBox="0 0 24 25" version="1.1" xmlns="http://www.w3.org/2000/svg" xmlns:xlink="http://www.w3.org/1999/xlink">
    <!-- Generator: Sketch 3.8.3 (29802) - http://www.bohemiancoding.com/sketch -->
    <title>Group 3</title>
    <desc>Created with Sketch.</desc>
    <defs></defs>
    <g id="Page-1" stroke="none" stroke-width="1" fill="none" fill-rule="evenodd">
        <g id="Group-3" fill="#FFFFFF">
            <g id="Group-18">
                <path d="M11.7966667,24.6493333 C5.292,24.6493333 0,19.214991 0,12.5338378 C0,5.85268468 5.292,0.417657658 11.7966667,0.417657658 C18.302,0.417657658 23.594,5.85268468 23.594,12.5338378 C23.594,19.214991 18.302,24.6493333 11.7966667,24.6493333 L11.7966667,24.6493333 Z M11.7966667,1.23927928 C5.73466667,1.23927928 0.799333333,6.30731532 0.799333333,12.5338378 C0.799333333,18.7596757 5.73466667,23.8283964 11.7966667,23.8283964 C17.8593333,23.8283964 22.794,18.7596757 22.794,12.5338378 C22.794,6.30731532 17.8593333,1.23927928 11.7966667,1.23927928 L11.7966667,1.23927928 Z" id="Fill-1"></path>
                <path d="M16.7633333,12.718018 L6.828,12.718018" id="Fill-2"></path>
                <path d="M6.828,16.0291532 L16.7633333,16.0291532" id="Fill-6"></path>
            </g>
            <g id="shapes" transform="translate(12.500000, 12.500000) scale(-1, 1) translate(-12.500000, -12.500000) translate(6.000000, 7.000000)">
                <g id="Capa_1">
                    <g id="Group">
                        <g id="Shape">
                            <polygon points="3.82845338 5.01642467 3.82845338 4.39372129 2.214742 4.39372129 2.214742 2.70548942 1.61951083 2.70548942 1.61951083 4.39372129 0.00575976966 4.39372129 0.00575976966 5.01642467 1.61951083 5.01642467 1.61951083 6.70457352 2.214742 6.70457352 2.214742 5.01642467"></polygon>
                            <path d="M10.2110623,6.47035403 L5.70615439,6.47035403 C4.19383072,6.47035403 2.96344821,7.75752342 2.96344821,9.33964664 L2.96344821,10.9972 L12.9537685,10.9972 L12.9537685,9.33964664 C12.9537685,7.75756493 11.7233859,6.47035403 10.2110623,6.47035403 L10.2110623,6.47035403 Z M12.3585373,10.3745381 L3.55867938,10.3745381 L3.55867938,9.33968815 C3.55867938,8.10092357 4.5220015,7.09309892 5.70615439,7.09309892 L10.2110226,7.09309892 C11.3951358,7.09309892 12.3584976,8.10092357 12.3584976,9.33968815 L12.3585373,10.3745381 L12.3585373,10.3745381 L12.3585373,10.3745381 Z"></path>
                            <path d="M8.01858411,6.17556625 C9.60848624,6.17556625 10.9019633,4.82234878 10.9019633,3.15906655 C10.9019633,1.49578432 9.60848624,0.142566862 8.01858411,0.142566862 C6.42868198,0.142566862 5.13516529,1.49574281 5.13516529,3.15906655 C5.13516529,4.8223903 6.42868198,6.17556625 8.01858411,6.17556625 L8.01858411,6.17556625 Z M8.01858411,0.765311751 C9.28027578,0.765311751 10.3067321,1.83914297 10.3067321,3.15910807 C10.3067321,4.47907317 9.28027578,5.55290439 8.01858411,5.55290439 C6.75685276,5.55290439 5.73039645,4.47903166 5.73039645,3.15910807 C5.73039645,1.83918448 6.75685276,0.765311751 8.01858411,0.765311751 L8.01858411,0.765311751 Z"></path>
                        </g>
                    </g>
                </g>
            </g>
        </g>
    </g>
</svg>