<?xml version="1.0" encoding="utf-8"?>
<!-- Generator: Adobe Illustrator 17.0.0, SVG Export Plug-In . SVG Version: 6.00 Build 0)  -->
<!DOCTYPE svg PUBLIC "-//W3C//DTD SVG 1.1//EN" "http://www.w3.org/Graphics/SVG/1.1/DTD/svg11.dtd">
<svg version="1.1" id="Layer_1" xmlns="http://www.w3.org/2000/svg" xmlns:xlink="http://www.w3.org/1999/xlink" x="0px" y="0px"
	 width="24px" height="24px" viewBox="0 0 24 24" enable-background="new 0 0 24 24" xml:space="preserve">
<title>Capa_1</title>
<desc>Created with Sketch.</desc>
<g id="Page-1">
	<g id="Capa_1">
		<g id="Group">
			<path id="Shape" fill="#FFFFFF" d="M11.934,23.867C5.353,23.867,0,18.514,0,11.935C0,5.354,5.353,0.001,11.934,0.001
				s11.934,5.353,11.934,11.934S18.514,23.867,11.934,23.867L11.934,23.867z M11.934,0.81C5.8,0.81,0.809,5.801,0.809,11.935
				S5.8,23.059,11.934,23.059s11.125-4.991,11.125-11.125S18.068,0.81,11.934,0.81L11.934,0.81z"/>
			<path id="Shape_1_" fill="#FFFFFF" d="M16.96,12.339H6.909c-0.223,0-0.405-0.181-0.405-0.405c0-0.223,0.181-0.405,0.405-0.405
				h10.05c0.223,0,0.405,0.181,0.405,0.405C17.364,12.157,17.183,12.339,16.96,12.339L16.96,12.339z"/>
			<path id="Shape_2_" fill="#FFFFFF" d="M11.934,17.364c-0.223,0-0.405-0.181-0.405-0.405V6.909c0-0.223,0.181-0.405,0.405-0.405
				c0.223,0,0.405,0.181,0.405,0.405v10.049C12.339,17.183,12.157,17.364,11.934,17.364L11.934,17.364z"/>
		</g>
	</g>
</g>
</svg>
