<?xml version="1.0" encoding="UTF-8" standalone="no"?>
<svg width="24px" height="24px" viewBox="0 0 24 24" version="1.1" xmlns="http://www.w3.org/2000/svg" xmlns:xlink="http://www.w3.org/1999/xlink">
    <!-- Generator: Sketch 3.8.3 (29802) - http://www.bohemiancoding.com/sketch -->
    <title>Group 8</title>
    <desc>Created with Sketch.</desc>
    <defs></defs>
    <g id="Page-1" stroke="none" stroke-width="1" fill="none" fill-rule="evenodd">
        <g id="Group-8" fill="#FFFFFF">
            <path d="M11.9339721,23.8674047 C5.35326512,23.8674047 0,18.5141395 0,11.9345116 C0,5.35434419 5.35326512,0.000539534884 11.9339721,0.000539534884 C18.5146791,0.000539534884 23.8679442,5.35380465 23.8679442,11.9345116 C23.8679442,18.5152186 18.5136,23.8674047 11.9339721,23.8674047 L11.9339721,23.8674047 Z M11.9339721,0.80984186 C5.8,0.80984186 0.809302326,5.80053953 0.809302326,11.9345116 C0.809302326,18.0684837 5.8,23.0591814 11.9339721,23.0591814 C18.0679442,23.0591814 23.0586419,18.0684837 23.0586419,11.9345116 C23.0586419,5.80053953 18.0679442,0.80984186 11.9339721,0.80984186 L11.9339721,0.80984186 Z" id="Shape"></path>
            <path d="M16.9597395,12.3386233 L6.90874419,12.3386233 C6.68537674,12.3386233 6.50409302,12.1573395 6.50409302,11.9339721 C6.50409302,11.7106047 6.68537674,11.5293209 6.90874419,11.5293209 L16.9592,11.5293209 C17.1825674,11.5293209 17.3638512,11.7106047 17.3638512,11.9339721 C17.3638512,12.1573395 17.183107,12.3386233 16.9597395,12.3386233 L16.9597395,12.3386233 Z" id="Shape"></path>
            <path d="M11.9339721,17.3638512 C11.7106047,17.3638512 11.5293209,17.1825674 11.5293209,16.9592 L11.5293209,6.90928372 C11.5293209,6.68591628 11.7106047,6.50463256 11.9339721,6.50463256 C12.1573395,6.50463256 12.3386233,6.68591628 12.3386233,6.90928372 L12.3386233,16.9586605 C12.3386233,17.1825674 12.1573395,17.3638512 11.9339721,17.3638512 L11.9339721,17.3638512 Z" id="Shape"></path>
        </g>
    </g>
</svg>