<?xml version="1.0" encoding="UTF-8" standalone="no"?>
<svg width="34px" height="17px" viewBox="0 0 34 17" version="1.1" xmlns="http://www.w3.org/2000/svg" xmlns:xlink="http://www.w3.org/1999/xlink">
    <!-- Generator: Sketch 3.6.1 (26313) - http://www.bohemiancoding.com/sketch -->
    <title>Arrival</title>
    <desc>Created with Sketch.</desc>
    <defs></defs>
    <g id="Page-1" stroke="none" stroke-width="1" fill="none" fill-rule="evenodd">
        <g id="Arrival" transform="translate(16.648587, 9.821076) rotate(23.000000) translate(-16.648587, -9.821076) translate(-0.851413, 3.321076)" fill="#898989">
            <g id="Capa_1" transform="translate(0.000000, -0.000000)">
                <g id="Group" transform="translate(0.000000, -0.000000)">
                    <path d="M1.63498373,10.5478404 C1.64951968,11.2848989 2.4000842,11.8607713 3.42827837,11.9323404 C3.93689864,12.0507234 5.40427123,12.070984 9.36652166,12.0738883 C10.728147,12.0749255 12.1362046,12.0758936 13.2103489,12.0931809 C13.2132423,12.0933191 13.2162735,12.0933191 13.2191669,12.0933191 C13.2605703,12.0933191 13.3017669,12.0886862 13.3419991,12.0792128 C15.3553996,11.6128032 17.4115813,11.1525479 19.4001123,10.7074362 C23.3858544,9.8152766 27.5073802,8.89282979 31.5004937,7.8713617 C31.5090362,7.86921809 31.5175786,7.86679787 31.5261211,7.86417021 C33.0699624,7.38807979 34.9077604,5.82662766 34.6718785,4.88205319 C34.3042087,3.4093883 30.9791287,2.72834043 27.6894584,3.4550266 C26.2002475,3.80014894 23.0010997,4.54854787 21.3241615,4.94836702 C20.2274211,4.84920745 11.3566371,1.0075 9.36355935,0.0993670213 C9.25312751,0.0490957447 9.12912419,0.0369255319 9.01083881,0.0653457447 C8.59432544,0.16512766 8.2757747,0.237388298 7.95639727,0.309856383 C7.6365376,0.382255319 7.3161957,0.454930851 6.89858009,0.554989362 C6.68687887,0.605606383 6.52526121,0.777579787 6.48737131,0.992771277 C6.44934362,1.20789362 6.54220833,1.42502128 6.7238043,1.54568617 C7.85781463,2.29899468 11.2229202,4.58644149 14.2147069,6.65447872 C14.0996594,6.68234574 13.9898475,6.70889894 13.8838247,6.73448404 C12.9216279,6.96689362 12.2698527,7.12434574 10.8648262,7.45017553 L7.76625885,7.15995745 L2.37583466,3.6169734 C2.24907572,3.53344149 2.09358933,3.50640426 1.94671429,3.54305319 L0.485266314,3.90207447 C0.322615296,3.9421117 0.187245009,4.05475532 0.117940933,4.20764362 C0.0485679658,4.36067021 0.0529080819,4.537 0.129721248,4.6863617 L2.55743063,9.4053617 C1.87878803,9.65492021 1.62657906,10.124234 1.63498373,10.5478404 L1.63498373,10.5478404 Z M1.41901129,4.80177128 L1.97578618,4.66499468 L7.28099254,8.15217553 C7.35553231,8.20106383 7.44075014,8.23100532 7.52948141,8.23930319 L10.851048,8.55026596 C10.9086407,8.55565957 10.9676112,8.55192553 11.0245838,8.53857979 C12.494092,8.19815957 13.1546852,8.03870213 14.1393404,7.80076064 C14.5580583,7.69959574 15.0356777,7.58425532 15.6595522,7.43475532 C15.8692556,7.38448404 16.0298399,7.21506915 16.069521,7.00250532 C16.1092709,6.78980319 16.0206774,6.57350532 15.8434905,6.45042021 C13.2731084,4.66499468 10.1646897,2.54322872 8.37993749,1.33810106 C8.59680551,1.28886702 8.82152708,1.23721277 9.08351853,1.17525532 C9.83415194,1.51042021 12.456271,2.66417021 15.0357466,3.74469149 C20.8632136,6.18606383 21.2649155,6.0903617 21.530007,6.02660638 C23.1915137,5.63024468 26.4334426,4.8716117 27.9296804,4.52482979 C31.1045787,3.82352128 33.3028819,4.64044681 33.5851273,5.08887766 C33.4133138,5.46601596 32.4139848,6.43831915 31.2173528,6.81193085 C27.2441488,7.82786702 23.1357122,8.74747872 19.1620948,9.63694149 C17.1931288,10.0776277 15.1575454,10.53325 13.161092,10.9955106 C12.0877056,10.978984 10.7051375,10.978016 9.36721056,10.977117 C7.15981374,10.9754574 4.14246858,10.9733138 3.70225681,10.8730479 C3.65065765,10.8541702 3.59657843,10.8430372 3.5417414,10.8402713 C3.04221471,10.8152394 2.79675703,10.6234894 2.73861326,10.5387128 C2.7992371,10.4825638 2.99419787,10.3749681 3.41939147,10.3364521 C3.60043631,10.3200638 3.76170951,10.214266 3.84920074,10.0543245 C3.93676086,9.89424468 3.93930982,9.70104255 3.85588314,9.53881915 L1.41901129,4.80177128 L1.41901129,4.80177128 Z" id="Shape"></path>
                </g>
            </g>
        </g>
    </g>
</svg>