<?xml version="1.0" encoding="UTF-8" standalone="no"?>
<svg width="24px" height="24px" viewBox="0 0 24 24" version="1.1" xmlns="http://www.w3.org/2000/svg" xmlns:xlink="http://www.w3.org/1999/xlink">
    <!-- Generator: Sketch 3.6.1 (26313) - http://www.bohemiancoding.com/sketch -->
    <title>Calendar Picker</title>
    <desc>Created with Sketch.</desc>
    <defs></defs>
    <g id="Page-1" stroke="none" stroke-width="1" fill="none" fill-rule="evenodd">
        <g id="Calendar-Picker" fill="#898989">
            <g id="Capa_1">
                <g id="calendar_1_">
                    <path d="M18.75,2.25 L18.75,0.75 C18.75,0.33525 18.41475,0 18,0 C17.58525,0 17.25,0.33525 17.25,0.75 L17.25,2.25 L12.75,2.25 L12.75,0.75 C12.75,0.33525 12.414,0 12,0 C11.586,0 11.25,0.33525 11.25,0.75 L11.25,2.25 L6.75,2.25 L6.75,0.75 C6.75,0.33525 6.414,0 6,0 C5.586,0 5.25,0.33525 5.25,0.75 L5.25,2.25 L2.00025,2.25 C0.8955,2.25 0,3.14475 0,4.2495 L0,21.99975 C0,23.1045 0.8955,24 2.00025,24 L22.0005,24 C23.10525,24 24,23.1045 24,21.99975 L24,4.2495 C24,3.14475 23.10525,2.25 22.0005,2.25 L18.75,2.25 Z M22.75,22.2110536 C22.75,22.493625 22.5204107,22.7232143 22.2386071,22.7232143 L1.76216071,22.7232143 C1.47958929,22.7232143 1.25,22.493625 1.25,22.2110536 L1.25,4.03817857 C1.25,3.756375 1.47958929,3.52678571 1.76216071,3.52678571 L5.08928571,3.52678571 L5.08928571,5.0625 C5.08928571,5.487125 5.43328571,5.83035714 5.85714286,5.83035714 C6.281,5.83035714 6.625,5.487125 6.625,5.0625 L6.625,3.52678571 L11.2321429,3.52678571 L11.2321429,5.0625 C11.2321429,5.487125 11.5761429,5.83035714 12,5.83035714 C12.4238571,5.83035714 12.7678571,5.487125 12.7678571,5.0625 L12.7678571,3.52678571 L17.375,3.52678571 L17.375,5.0625 C17.375,5.487125 17.7182321,5.83035714 18.1428571,5.83035714 C18.5674821,5.83035714 18.9107143,5.487125 18.9107143,5.0625 L18.9107143,3.52678571 L22.2386071,3.52678571 C22.5204107,3.52678571 22.75,3.756375 22.75,4.03817857 L22.75,22.2110536 L22.75,22.2110536 Z" id="Shape"></path>
                    <rect id="Rectangle-path" x="5.25" y="9" width="3" height="2.25"></rect>
                    <rect id="Rectangle-path" x="5.25" y="12.75" width="3" height="2.25"></rect>
                    <rect id="Rectangle-path" x="5.25" y="16.5" width="3" height="2.25"></rect>
                    <rect id="Rectangle-path" x="10.5" y="16.5" width="3" height="2.25"></rect>
                    <rect id="Rectangle-path" x="10.5" y="12.75" width="3" height="2.25"></rect>
                    <rect id="Rectangle-path" x="10.5" y="9" width="3" height="2.25"></rect>
                    <rect id="Rectangle-path" x="15.75" y="16.5" width="3" height="2.25"></rect>
                    <rect id="Rectangle-path" x="15.75" y="12.75" width="3" height="2.25"></rect>
                    <rect id="Rectangle-path" x="15.75" y="9" width="3" height="2.25"></rect>
                </g>
            </g>
        </g>
    </g>
</svg>