<?xml version="1.0" encoding="UTF-8" standalone="no"?>
<svg width="22px" height="22px" viewBox="0 0 22 22" version="1.1" xmlns="http://www.w3.org/2000/svg" xmlns:xlink="http://www.w3.org/1999/xlink">
    <!-- Generator: Sketch 3.6.1 (26313) - http://www.bohemiancoding.com/sketch -->
    <title>Delete Leg</title>
    <desc>Created with Sketch.</desc>
    <defs></defs>
    <g id="Page-1" stroke="none" stroke-width="1" fill="none" fill-rule="evenodd">
        <g id="Delete-Leg">
            <rect id="Rectangle-524" fill="#F1F1F1" x="0" y="0" width="22" height="22" rx="25"></rect>
            <path d="M6.13787854,7.22265 C5.95404049,7.03345 5.95404049,6.71995 6.13787854,6.52415 C6.32759514,6.3355 6.62633198,6.3355 6.81604858,6.52415 L10.8872065,10.7201 L14.9658462,6.52415 C15.1496842,6.3355 15.4542996,6.3355 15.6381377,6.52415 C15.826251,6.71995 15.826251,7.03345 15.6381377,7.22265 L11.5653765,11.412 L15.6381377,15.61015 C15.826251,15.79935 15.826251,16.11285 15.6381377,16.3081 C15.4542996,16.4973 15.1475466,16.4973 14.9658462,16.3081 L10.8872065,12.1105 L6.81604858,16.3081 C6.62633198,16.4973 6.32759514,16.4973 6.13787854,16.3081 C5.95404049,16.11285 5.95404049,15.79935 6.13787854,15.61015 L10.208502,11.412 L6.13787854,7.22265 Z" id="Fill-1" fill="#C60C30"></path>
        </g>
    </g>
</svg>