<?xml version="1.0" encoding="UTF-8" standalone="no"?>
<svg width="35px" height="13px" viewBox="0 0 35 13" version="1.1" xmlns="http://www.w3.org/2000/svg" xmlns:xlink="http://www.w3.org/1999/xlink">
    <!-- Generator: Sketch 3.6.1 (26313) - http://www.bohemiancoding.com/sketch -->
    <title>Departure Airport</title>
    <desc>Created with Sketch.</desc>
    <defs></defs>
    <g id="Page-1" stroke="none" stroke-width="1" fill="none" fill-rule="evenodd">
        <path d="M1.56613907,10.4975275 C1.58067502,11.234586 2.33123954,11.8104583 3.35943371,11.8820275 C3.86805398,12.0004105 5.33542656,12.0206711 9.29767699,12.0235754 C10.6593023,12.0246126 12.06736,12.0255807 13.1415043,12.0428679 C13.1443977,12.0430062 13.1474289,12.0430062 13.1503223,12.0430062 C13.1917256,12.0430062 13.2329223,12.0383732 13.2731544,12.0288998 C15.286555,11.5624903 17.3427366,11.1022349 19.3312676,10.6571232 C23.3170098,9.76496366 27.4385356,8.84251685 31.4316491,7.82104877 C31.4401915,7.81890515 31.448734,7.81648494 31.4572764,7.81385728 C33.0011177,7.33776685 34.8389158,5.77631472 34.6030339,4.83174026 C34.2353641,3.35907536 30.910284,2.67802749 27.6206138,3.40471366 C26.1314028,3.749836 22.932255,4.49823494 21.2553168,4.89805409 C20.1585764,4.79889451 11.2877925,0.957187065 9.29471469,0.0490540866 C9.18428285,-0.00121718997 9.06027953,-0.0133874027 8.94199415,0.01503281 C8.52548078,0.114814725 8.20693004,0.187075363 7.88755261,0.259543448 C7.56769294,0.331942384 7.24735104,0.404617916 6.82973542,0.504676427 C6.61803421,0.555293448 6.45641655,0.727266853 6.41852665,0.942458342 C6.38049896,1.15758068 6.47336367,1.37470834 6.65495964,1.49537324 C7.78896997,2.24868175 11.1540755,4.53612855 14.1458622,6.60416579 C14.0308147,6.63203281 13.9210029,6.658586 13.81498,6.68417111 C12.8527832,6.91658068 12.201008,7.07403281 10.7959815,7.3998626 L7.69741419,7.10964451 L2.30699,3.56666047 C2.18023105,3.48312855 2.02474467,3.45609132 1.87786963,3.49274026 L0.416421652,3.85176153 C0.253770635,3.89179877 0.118400347,4.00444238 0.0490962712,4.15733068 C-0.0202766956,4.31035728 -0.0159365795,4.48668707 0.0608765863,4.63604877 L2.48858597,9.35504877 C1.80994337,9.60460728 1.5577344,10.0739211 1.56613907,10.4975275 L1.56613907,10.4975275 Z M1.35016663,4.75145834 L1.90694152,4.61468175 L7.21214788,8.1018626 C7.28668765,8.1507509 7.37190548,8.18069238 7.46063674,8.18899026 L10.7822034,8.49995302 C10.839796,8.50534664 10.8987665,8.5016126 10.9557391,8.48826685 C12.4252473,8.14784664 13.0858405,7.98838919 14.0704958,7.7504477 C14.4892136,7.64928281 14.9668331,7.53394238 15.5907075,7.38444238 C15.8004109,7.33417111 15.9609952,7.16475621 16.0006763,6.95219238 C16.0404262,6.73949026 15.9518328,6.52319238 15.7746458,6.40010728 C13.2042637,4.61468175 10.095845,2.49291579 8.31109283,1.28778813 C8.52796085,1.23855409 8.75268242,1.18689983 9.01467387,1.12494238 C9.76530728,1.46010728 12.3874263,2.61385728 14.966902,3.69437855 C20.794369,6.1357509 21.1960708,6.04004877 21.4611624,5.97629345 C23.122669,5.57993175 26.364598,4.82129877 27.8608358,4.47451685 C31.035734,3.77320834 33.2340373,4.59013387 33.5162826,5.03856472 C33.3444691,5.41570302 32.3451402,6.38800621 31.1485081,6.76161792 C27.1753041,7.77755409 23.0668675,8.69716579 19.0932501,9.58662855 C17.1242841,10.0273147 15.0887008,10.4829371 13.0922474,10.9451977 C12.0188609,10.9286711 10.6362928,10.927703 9.2983659,10.9268041 C7.09096908,10.9251445 4.07362392,10.9230009 3.63341215,10.8227349 C3.58181299,10.8038573 3.52773377,10.7927243 3.47289674,10.7899583 C2.97337005,10.7649264 2.72791237,10.5731764 2.66976859,10.4883998 C2.73039244,10.4322509 2.92535321,10.3246552 3.3505468,10.2861392 C3.53159165,10.2697509 3.69286485,10.163953 3.78035608,10.0040115 C3.8679162,9.84393175 3.87046516,9.65072962 3.78703848,9.48850621 L1.35016663,4.75145834 L1.35016663,4.75145834 Z" id="Departure-Airport" fill="#898989"></path>
    </g>
</svg>