<?xml version="1.0" encoding="UTF-8" standalone="no"?>
<svg width="18px" height="18px" viewBox="0 0 18 18" version="1.1" xmlns="http://www.w3.org/2000/svg" xmlns:xlink="http://www.w3.org/1999/xlink">
    <!-- Generator: Sketch 3.6.1 (26313) - http://www.bohemiancoding.com/sketch -->
    <title>Edit Any Card</title>
    <desc>Created with Sketch.</desc>
    <defs>
        <path id="path-1" d="M8.87492308,0.276923077 L0.0276923077,0.276923077 L0.0276923077,17.9990769 L17.7221538,17.9990769 L17.7221538,0.276923077 L8.87492308,0.276923077 L8.87492308,0.276923077 Z"></path>
    </defs>
    <g id="Page-1" stroke="none" stroke-width="1" fill="none" fill-rule="evenodd">
        <g id="Edit-Any-Card">
            <mask id="mask-2" fill="white">
                <use xlink:href="#path-1"></use>
            </mask>
            <g id="Clip-2"></g>
            <path d="M5.16876923,12.8303077 L8.84307692,12.8284615 L16.992,4.67076923 L16.5632308,4.24523077 L16.17,3.85384615 L16.0384615,3.72415385 L14.4715385,2.15723077 L13.3287692,1.01630769 L12.3535385,1.99338462 L10.6172308,3.72784615 L10.2798462,4.08092308 L5.16876923,9.138 L5.16876923,12.8303077 Z M13.3287692,2.05984615 L15.9410769,4.67076923 L14.8952308,5.71430769 L12.2847692,3.10384615 L13.3287692,2.05984615 Z M5.90815385,9.52753846 L11.7853846,3.62676923 L14.3852308,6.21369231 L8.47338462,12.0932308 L5.90815385,12.0932308 L5.90815385,9.52753846 Z M16.9850769,8.76830769 L16.9850769,17.262 L0.739384615,17.262 L0.739384615,1.01630769 L9.23076923,1.01630769 L9.23076923,0.276923077 L0,0.276923077 L0,17.9990769 L17.7221538,17.9990769 L17.7221538,8.76830769 L16.9850769,8.76830769 Z" id="Fill-1" fill="#C60C30" mask="url(#mask-2)"></path>
        </g>
    </g>
</svg>