<?xml version="1.0" encoding="UTF-8" standalone="no"?>
<svg width="17px" height="16px" viewBox="0 0 17 16" version="1.1" xmlns="http://www.w3.org/2000/svg" xmlns:xlink="http://www.w3.org/1999/xlink">
    <!-- Generator: Sketch 3.6.1 (26313) - http://www.bohemiancoding.com/sketch -->
    <title>Shape</title>
    <desc>Created with Sketch.</desc>
    <defs></defs>
    <g id="Page-1" stroke="none" stroke-width="1" fill="none" fill-rule="evenodd">
        <g id="final-menu" transform="translate(-1203.000000, -302.000000)" fill="#FFFFFF">
            <g id="Group-2" transform="translate(1154.000000, -1.000000)">
                <path d="M63.4960338,318.994072 L59.2532745,318.994072 C59.0578375,318.994072 58.899706,318.838563 58.899706,318.646368 L58.899706,314.126303 L56.0712208,314.126303 L56.0712208,318.646368 C56.0712208,318.838563 55.9130894,318.994072 55.7176523,318.994072 L51.4749245,318.994072 C51.2794875,318.994072 51.121356,318.838563 51.121356,318.646368 L51.121356,311.692433 C51.121356,311.500238 51.2794875,311.344729 51.4749245,311.344729 C51.6703616,311.344729 51.8284931,311.500238 51.8284931,311.692433 L51.8284931,318.298694 L55.3641153,318.298694 L55.3641153,313.778629 C55.3641153,313.586433 55.5222468,313.430925 55.7176838,313.430925 L59.253306,313.430925 C59.4487431,313.430925 59.6068745,313.586433 59.6068745,313.778629 L59.6068745,318.298694 L63.1424968,318.298694 L63.1424968,312.040138 C63.1424968,311.847942 63.3006282,311.692433 63.4960653,311.692433 C63.6915023,311.692433 63.8496338,311.847942 63.8496338,312.040138 L63.8496338,318.646399 C63.8495708,318.838563 63.6914394,318.994072 63.4960338,318.994072 L63.4960338,318.994072 Z M65.6173819,311.692433 C65.5269356,311.692433 65.4364579,311.658471 65.367419,311.590577 L57.4854634,303.839378 L49.6035394,311.590577 C49.4654301,311.726396 49.2416912,311.726396 49.1035819,311.590577 C48.9654727,311.454758 48.9654727,311.23473 49.1035819,311.098912 L57.2355005,303.101864 C57.3736097,302.966045 57.5973486,302.966045 57.7354579,303.101864 L65.8673764,311.098912 C66.0054856,311.23473 66.0054856,311.454758 65.8673764,311.590577 C65.798306,311.658471 65.7078597,311.692433 65.6173819,311.692433 L65.6173819,311.692433 Z M62.9774356,306.8942 C62.7689714,306.8942 62.6002995,306.735236 62.6002995,306.538769 L62.6002995,304.406247 L60.3375162,304.406247 C60.1290521,304.406247 59.9603801,304.247283 59.9603801,304.050817 C59.9603801,303.85435 60.1290521,303.695386 60.3375162,303.695386 L62.9774356,303.695386 C63.1858998,303.695386 63.3545718,303.85435 63.3545718,304.050817 L63.3545718,306.538769 C63.3545718,306.735236 63.1858998,306.8942 62.9774356,306.8942 L62.9774356,306.8942 Z" id="Shape"></path>
            </g>
        </g>
    </g>
</svg>