<?xml version="1.0" encoding="UTF-8" standalone="no"?>
<svg width="12px" height="12px" viewBox="0 0 12 12" version="1.1" xmlns="http://www.w3.org/2000/svg" xmlns:xlink="http://www.w3.org/1999/xlink">
    <!-- Generator: Sketch 3.6.1 (26313) - http://www.bohemiancoding.com/sketch -->
    <title>Hour-icon</title>
    <desc>Created with Sketch.</desc>
    <defs></defs>
    <g id="Elements" stroke="none" stroke-width="1" fill="none" fill-rule="evenodd">
        <g id="RF-08" transform="translate(-543.000000, -358.000000)" fill="#898989">
            <g id="Group-27" transform="translate(60.000000, 291.000000)">
                <g transform="translate(14.000000, 16.000000)" id="card">
                    <g>
                        <g id="clock" transform="translate(469.000000, 51.000000)">
                            <g id="Capa_1">
                                <g id="clock">
                                    <path d="M6,0 C2.68611765,0 0,2.68611765 0,6 C0,9.31388235 2.68611765,12 6,12 C9.31388235,12 12,9.3134902 12,6 C12,2.6865098 9.31388235,0 6,0 L6,0 Z M6,11.2383725 C3.10688235,11.2383725 0.761627451,8.89313725 0.761627451,6 C0.761627451,3.10688235 3.10688235,0.761627451 6,0.761627451 C8.89313725,0.761627451 11.2383725,3.10688235 11.2383725,6 C11.2383725,8.89313725 8.89313725,11.2383725 6,11.2383725 L6,11.2383725 Z M6.375,2.27362745 L5.63662745,2.27362745 L5.6482549,6.387 L8.238,8.6017451 L8.69511765,7.95711765 L6.375,6.01160784 L6.375,2.27362745 L6.375,2.27362745 Z" id="Hour-icon"></path>
                                </g>
                            </g>
                        </g>
                    </g>
                </g>
            </g>
        </g>
    </g>
</svg>