<?xml version="1.0" encoding="UTF-8" standalone="no"?>
<svg width="21px" height="12px" viewBox="0 0 21 12" version="1.1" xmlns="http://www.w3.org/2000/svg" xmlns:xlink="http://www.w3.org/1999/xlink">
    <!-- Generator: Sketch 3.6.1 (26313) - http://www.bohemiancoding.com/sketch -->
    <title>Step 1 Weather Cloud</title>
    <desc>Created with Sketch.</desc>
    <defs></defs>
    <g id="Page-1" stroke="none" stroke-width="1" fill="none" fill-rule="evenodd">
        <g id="Step-1-Weather-Cloud" fill="#9B9B9B">
            <g id="Capa_1">
                <path d="M20.9446737,7.68804878 C20.7387162,5.8482439 19.366385,4.56659041 17.5821044,4.51469975 L17.4264372,4.51469975 C17.400093,4.46037174 17.400093,4.4085164 17.3737488,4.35418839 C16.9594013,2.94162489 15.8744927,2.06001346 14.5285057,2.06001346 C14.0638679,2.06001346 13.5968662,2.1661968 13.1322284,2.38103616 C13.07954,2.40820017 13.0029054,2.43536417 12.950217,2.46005551 C12.9238728,2.4057275 12.8735824,2.35387216 12.820894,2.29954415 C11.733553,0.859816653 10.1049739,0.0325332212 8.37101794,0.0325332212 C6.97474062,0.0325332212 5.65509788,0.565957948 4.62047961,1.55375273 C3.55948287,2.56623886 2.93921207,3.84792767 2.80985481,5.34198318 L2.80985481,5.58151388 L2.80985481,5.63584188 L2.75716639,5.63584188 C2.68053181,5.63584188 2.60149918,5.63584188 2.55120881,5.66300589 C1.74889233,5.76918923 1.10224307,6.11741127 0.63760522,6.72985534 C-0.0617324633,7.66332212 -0.191055465,8.73017157 0.275946166,9.82414971 C0.766928222,10.9453272 1.6985677,11.5577359 2.91523165,11.5577359 L6.04549918,11.5577359 L13.4699755,11.5577359 L17.5821729,11.5577359 C17.8935073,11.5577359 18.1521876,11.5305719 18.4108336,11.4515526 C20.0393785,11.0490378 21.1530294,9.39447098 20.9446737,7.68804878 L20.9446737,7.68804878 Z M18.1784633,10.5156484 C17.9964519,10.5699765 17.79046,10.5699765 17.5845024,10.5946678 L13.4723051,10.5946678 L10.2893491,10.5946678 L6.04782871,10.5946678 L2.91756117,10.5946678 C2.08890049,10.5946678 1.49493964,10.1945904 1.1596248,9.42163499 C0.824309951,8.67584357 0.927323002,8.00907149 1.44461501,7.34229941 C1.75594943,6.94222204 2.16789886,6.72985534 2.73791354,6.64836333 L2.86723654,6.64836333 C3.09953834,6.64836333 3.38456281,6.62119933 3.6168646,6.38166863 C3.82282219,6.14213793 3.82282219,5.8482439 3.82282219,5.6087132 L3.82282219,5.44820185 C3.92580098,4.19367704 4.41678303,3.15402691 5.3220783,2.30205214 C6.17468515,1.47476871 7.28837031,1.04752733 8.42600163,1.04752733 C9.87496737,1.04752733 11.2185563,1.74146341 12.1238515,2.94166022 C12.3561533,3.26268293 12.5645432,3.52941295 12.926168,3.52941295 C13.1321256,3.52941295 13.2878271,3.45039361 13.5728173,3.31704626 C13.9081321,3.1565349 14.2458108,3.07751556 14.5810914,3.07751556 C15.4863866,3.07751556 16.2096705,3.68995963 16.5210392,4.67775442 C16.7269967,5.3716905 16.9090424,5.53220185 17.6323263,5.53220185 C18.9256248,5.55936585 19.8836085,6.46566863 20.0369119,7.82637679 C20.1447553,9.02159294 19.3424388,10.2217544 18.1784633,10.5156484 L18.1784633,10.5156484 Z" id="Shape"></path>
            </g>
        </g>
    </g>
</svg>