<?xml version="1.0" encoding="UTF-8" standalone="no"?>
<svg width="26px" height="26px" viewBox="0 0 26 26" version="1.1" xmlns="http://www.w3.org/2000/svg" xmlns:xlink="http://www.w3.org/1999/xlink">
    <!-- Generator: Sketch 3.7.2 (28276) - http://www.bohemiancoding.com/sketch -->
    <title>cloud</title>
    <desc>Created with Sketch.</desc>
    <defs></defs>
    <g id="Page-1" stroke="none" stroke-width="1" fill="none" fill-rule="evenodd">
        <g id="I-R-08" transform="translate(-238.000000, -237.000000)">
            <g id="cloud" transform="translate(239.000000, 238.000000)">
                <path d="M6.26142857,11.5114286 C6.26142857,12.3385714 6.93428571,13.0114286 7.76142857,13.0114286 C8.59114286,13.0114286 9.26142857,12.3385714 9.26142857,11.5114286 C9.26142857,10.9757143 8.63828571,9.94457143 8.196,9.282 C7.98857143,8.97085714 7.53342857,8.97085714 7.326,9.282 C6.88371429,9.94457143 6.26142857,10.9757143 6.26142857,11.5114286 L6.26142857,11.5114286 Z" id="Fill-2" fill="#6F6F6F"></path>
                <path d="M9.77657143,16.8994286 C9.77657143,17.508 10.272,18.0008571 10.878,18.0008571 C11.4874286,18.0008571 11.9802857,17.508 11.9802857,16.8994286 C11.9802857,16.5505714 11.6245714,15.9214286 11.3168571,15.4422857 C11.1128571,15.1208571 10.644,15.1208571 10.4434286,15.4422857 C10.1348571,15.9214286 9.77657143,16.5505714 9.77657143,16.8994286 L9.77657143,16.8994286 Z" id="Fill-4" fill="#6F6F6F"></path>
                <path d="M11.4908571,8.328 C11.4908571,8.93657143 11.9862857,9.42942857 12.5922857,9.42942857 C13.2017143,9.42942857 13.6945714,8.93657143 13.6945714,8.328 C13.6945714,7.97914286 13.3388571,7.35 13.0311429,6.87085714 C12.8271429,6.54942857 12.3582857,6.54942857 12.1577143,6.87085714 C11.8491429,7.35 11.4908571,7.97914286 11.4908571,8.328 L11.4908571,8.328 Z" id="Fill-4-Copy" fill="#6F6F6F"></path>
                <path d="M15.7131429,15.3994286 C16.5437143,15.3994286 17.2131429,14.7257143 17.2131429,13.896 C17.2131429,13.3637143 16.59,12.3317143 16.1451429,11.6657143 C15.9411429,11.3545714 15.4851429,11.3545714 15.2777143,11.6657143 C14.8362857,12.3317143 14.2131429,13.3637143 14.2131429,13.896 C14.2131429,14.7257143 14.886,15.3994286 15.7131429,15.3994286 Z" id="Fill-6" fill="#6F6F6F"></path>
                <path d="M0,11.7822857 C0,18.2788571 5.28571429,23.5645714 11.7822857,23.5645714 C18.2788571,23.5645714 23.5645714,18.2788571 23.5645714,11.7822857 C23.5645714,5.28571429 18.2788571,0 11.7822857,0 C5.28571429,0 0,5.28571429 0,11.7822857 Z" id="Path" stroke="#D8D8D8"></path>
            </g>
        </g>
    </g>
</svg>