<?xml version="1.0" encoding="UTF-8" standalone="no"?>
<svg width="26px" height="26px" viewBox="0 0 26 26" version="1.1" xmlns="http://www.w3.org/2000/svg" xmlns:xlink="http://www.w3.org/1999/xlink">
    <!-- Generator: Sketch 3.7.2 (28276) - http://www.bohemiancoding.com/sketch -->
    <title>cloud copy</title>
    <desc>Created with Sketch.</desc>
    <defs></defs>
    <g id="Page-1" stroke="none" stroke-width="1" fill="none" fill-rule="evenodd">
        <g id="I-R-08" transform="translate(-238.000000, -271.000000)">
            <g id="cloud-copy" transform="translate(239.000000, 272.000000)">
                <path d="M17.1441066,11.6003806 L13.7989822,8.2552562 C13.4577915,7.91479339 12.9047896,7.91479339 12.5635989,8.25598407 C12.2224082,8.59644688 12.2224082,9.14944874 12.5643268,9.49063943 L14.340702,11.2677425 L6.87363012,11.2677425 C6.39105002,11.2677425 6,11.6586105 6,12.1411906 C6,12.6232248 6.39105002,13.0140929 6.87363012,13.0140929 L14.4942833,13.0140929 L12.64967,14.8594341 C12.3084793,15.1998969 12.3084793,15.7528987 12.64967,16.0940894 C12.8203563,16.2645938 13.0441774,16.3499369 13.2674526,16.3499369 C13.4905458,16.3499369 13.7145488,16.2645938 13.8850532,16.0940894 L17.1441066,12.835036 C17.4852973,12.4945732 17.4852973,11.9415713 17.1441066,11.6003806 L17.1441066,11.6003806 Z" id="Fill-1" fill="#6F6F6F" transform="translate(11.700000, 12.174968) rotate(-32.000000) translate(-11.700000, -12.174968) "></path>
                <path d="M0,11.7822857 C0,18.2788571 5.28571429,23.5645714 11.7822857,23.5645714 C18.2788571,23.5645714 23.5645714,18.2788571 23.5645714,11.7822857 C23.5645714,5.28571429 18.2788571,0 11.7822857,0 C5.28571429,0 0,5.28571429 0,11.7822857 Z" id="Path" stroke="#D8D8D8"></path>
            </g>
        </g>
    </g>
</svg>