<?xml version="1.0" encoding="utf-8"?>
<!-- Generator: Adobe Illustrator 17.0.0, SVG Export Plug-In . SVG Version: 6.00 Build 0)  -->
<!DOCTYPE svg PUBLIC "-//W3C//DTD SVG 1.1//EN" "http://www.w3.org/Graphics/SVG/1.1/DTD/svg11.dtd" [
	<!ENTITY ns_extend "http://ns.adobe.com/Extensibility/1.0/">
	<!ENTITY ns_ai "http://ns.adobe.com/AdobeIllustrator/10.0/">
	<!ENTITY ns_graphs "http://ns.adobe.com/Graphs/1.0/">
	<!ENTITY ns_vars "http://ns.adobe.com/Variables/1.0/">
	<!ENTITY ns_imrep "http://ns.adobe.com/ImageReplacement/1.0/">
	<!ENTITY ns_sfw "http://ns.adobe.com/SaveForWeb/1.0/">
	<!ENTITY ns_custom "http://ns.adobe.com/GenericCustomNamespace/1.0/">
	<!ENTITY ns_adobe_xpath "http://ns.adobe.com/XPath/1.0/">
]>
<svg version="1.1" id="Layer_1" xmlns:x="&ns_extend;" xmlns:i="&ns_ai;" xmlns:graph="&ns_graphs;"
	 xmlns="http://www.w3.org/2000/svg" xmlns:xlink="http://www.w3.org/1999/xlink" x="0px" y="0px" width="96px" height="96px"
	 viewBox="0 0 96 96" enable-background="new 0 0 96 96" xml:space="preserve">
<metadata>
	<sfw  xmlns="&ns_sfw;">
		<slices></slices>
		<sliceSourceBounds  height="101.5" width="165.5" x="180.25" y="198.751" bottomLeftOrigin="true"></sliceSourceBounds>
	</sfw>
</metadata>
<title>airplane128</title>
<desc>Created with Sketch.</desc>
<g>
	<path fill="#FFFFFF" d="M78.601,5.391c-3.838-3.828-10.99-4.154-19.921-1.006c8.605,1.694,16.541,5.797,22.993,11.971
		C82.08,11.583,81.034,7.817,78.601,5.391z"/>
	<polygon fill="#FFFFFF" points="60.119,79.36 61.272,78.394 61.273,59.34 53.985,66.61 	"/>
	<path fill="#FFFFFF" d="M47.725,72.854c-0.372,0.371-0.786,0.697-1.224,0.984l2.092,4.347l-0.001-6.196L47.725,72.854z"/>
	<polygon fill="#FFFFFF" points="56.032,53.407 36.169,53.408 35.158,54.417 48.526,60.893 	"/>
	<path fill="#FFFFFF" d="M5.167,78.635c2.431,2.425,6.207,3.469,10.993,3.062C9.827,75.11,5.832,67.097,4.178,58.711
		C1.001,67.644,1.321,74.799,5.167,78.635z"/>
	<path fill="#FFFFFF" d="M42.997,66.409l-6.119-0.001l4.275,2.071c0.285-0.431,0.609-0.838,0.977-1.205L42.997,66.409z"/>
	<path fill="#FFFFFF" d="M75.874,37.704c-0.186,0.315-0.519,0.49-0.86,0.49c-0.172,0-0.346-0.044-0.505-0.138
		c-0.474-0.279-0.633-0.889-0.353-1.362c3.783-6.405,6.258-12.565,7.188-17.861c-0.126-0.129-0.249-0.258-0.377-0.385
		c-8.375-8.353-19.51-12.954-31.354-12.954c-11.844,0-22.979,4.6-31.354,12.954C0.97,35.692,0.97,63.75,18.259,80.994
		c0.127,0.127,0.257,0.25,0.386,0.376c4.939-0.862,10.67-3.075,16.616-6.425c0.48-0.27,1.088-0.101,1.359,0.377
		c0.271,0.479,0.102,1.085-0.378,1.355c-5.566,3.135-10.976,5.314-15.784,6.366c8.078,7.052,18.32,10.905,29.155,10.905
		c11.844,0,22.979-4.601,31.354-12.954c16.574-16.531,17.256-42.998,2.053-60.351C81.882,25.823,79.436,31.674,75.874,37.704z
		 M71.54,49.101l-8.271,8.25l0,6.009l1.672-1.668c0.389-0.388,1.021-0.388,1.41,0c0.39,0.388,0.39,1.018,0,1.407l-3.082,3.075
		l-0.001,12.685c0,0.294-0.13,0.573-0.356,0.762l-2.493,2.088c-0.181,0.152-0.409,0.233-0.641,0.233c-0.07,0-0.141-0.007-0.21-0.022
		c-0.302-0.065-0.556-0.265-0.689-0.542l-6.387-13.276L50.587,70l0.001,8.858c0,0.294-0.131,0.573-0.357,0.763l-1.27,1.061
		c-0.181,0.151-0.408,0.232-0.641,0.232c-0.07,0-0.141-0.007-0.211-0.022c-0.301-0.065-0.555-0.265-0.688-0.542l-2.715-5.641
		c-0.465,0.156-0.942,0.273-1.43,0.338c-0.133,0.017-0.267,0.026-0.399,0.026h-0.001c-0.855,0-1.67-0.37-2.236-1.015
		c-0.565-0.643-0.824-1.499-0.71-2.348c0.066-0.493,0.185-0.975,0.345-1.444l-5.769-2.795c-0.29-0.141-0.494-0.413-0.548-0.73
		c-0.054-0.317,0.05-0.641,0.278-0.868l1.167-1.164c0.187-0.187,0.441-0.291,0.705-0.291h0l8.881,0.002l2.042-2.037l-14.007-6.787
		c-0.29-0.141-0.494-0.413-0.548-0.73c-0.054-0.317,0.05-0.641,0.278-0.868l2.293-2.287c0.187-0.187,0.44-0.291,0.705-0.291
		l12.853-0.001l3.015-3.008c0.389-0.388,1.021-0.388,1.41,0c0.39,0.388,0.39,1.018,0,1.407l-1.605,1.6l6.598-0.001l7.917-7.897
		c0.747-0.745,1.741-1.155,2.797-1.155c1.057,0,2.05,0.41,2.798,1.155c0.747,0.745,1.159,1.736,1.159,2.79
		S72.287,48.355,71.54,49.101z"/>
	<path fill="#FFFFFF" d="M68.742,44.354c-0.524,0-1.017,0.203-1.387,0.573L43.54,68.681c-0.886,0.884-1.466,2.054-1.631,3.293
		c-0.038,0.284,0.045,0.559,0.234,0.774c0.188,0.214,0.455,0.336,0.735,0.336c0.045,0,0.09-0.003,0.135-0.009
		c1.242-0.165,2.415-0.743,3.301-1.627l2.569-2.562c0,0,0.001-0.001,0.001-0.001l21.245-21.19c0.37-0.369,0.575-0.861,0.575-1.383
		s-0.204-1.014-0.575-1.383C69.759,44.557,69.266,44.354,68.742,44.354z"/>
	<path fill="#FFFFFF" d="M-21.25-1.751v101.5h165.5v-101.5H-21.25z M82.378,82.401C73.626,91.13,61.99,95.937,49.613,95.937
		c-11.852,0-23.022-4.411-31.633-12.449c-1.316,0.187-2.578,0.286-3.774,0.286c-4.408,0-7.973-1.263-10.449-3.732
		c-2.554-2.548-3.813-6.169-3.742-10.763c0.066-4.245,1.266-9.123,3.563-14.499C2.105,41.322,6.526,27.337,16.849,17.042
		C25.6,8.312,37.236,3.505,49.613,3.505c1.723,0,3.43,0.096,5.118,0.28c5.372-2.278,10.247-3.469,14.491-3.534
		c4.619-0.071,8.236,1.185,10.79,3.733c3.148,3.14,4.335,8.04,3.456,14.186C100.433,36.266,100.072,64.752,82.378,82.401z"/>
</g>
</svg>
