<?xml version="1.0" encoding="utf-8"?>
<!-- Generator: Adobe Illustrator 17.0.0, SVG Export Plug-In . SVG Version: 6.00 Build 0)  -->
<!DOCTYPE svg PUBLIC "-//W3C//DTD SVG 1.1//EN" "http://www.w3.org/Graphics/SVG/1.1/DTD/svg11.dtd" [
	<!ENTITY ns_extend "http://ns.adobe.com/Extensibility/1.0/">
	<!ENTITY ns_ai "http://ns.adobe.com/AdobeIllustrator/10.0/">
	<!ENTITY ns_graphs "http://ns.adobe.com/Graphs/1.0/">
	<!ENTITY ns_vars "http://ns.adobe.com/Variables/1.0/">
	<!ENTITY ns_imrep "http://ns.adobe.com/ImageReplacement/1.0/">
	<!ENTITY ns_sfw "http://ns.adobe.com/SaveForWeb/1.0/">
	<!ENTITY ns_custom "http://ns.adobe.com/GenericCustomNamespace/1.0/">
	<!ENTITY ns_adobe_xpath "http://ns.adobe.com/XPath/1.0/">
]>
<svg version="1.1" id="Layer_1" xmlns:x="&ns_extend;" xmlns:i="&ns_ai;" xmlns:graph="&ns_graphs;"
	 xmlns="http://www.w3.org/2000/svg" xmlns:xlink="http://www.w3.org/1999/xlink" x="0px" y="0px" width="147.5px"
	 height="78.359px" viewBox="0 0 147.5 78.359" enable-background="new 0 0 147.5 78.359" xml:space="preserve">
<metadata>
	<sfw  xmlns="&ns_sfw;">
		<slices></slices>
		<sliceSourceBounds  height="101.5" width="165.5" x="166.5" y="199.68" bottomLeftOrigin="true"></sliceSourceBounds>
	</sfw>
</metadata>
<title>transport294</title>
<desc>Created with Sketch.</desc>
<path fill="#FFFFFF" d="M-9.25-11.5V90h165.5V-11.5H-9.25z M90.32,35.278C68.941,46.046,68.629,60.871,68.629,60.871
	s-2.028-3.746-12.172-6.398C46.313,51.82,1.682,67.581,1.682,67.581c7.178-4.994,48.064-20.443,54.15-20.911
	c6.086-0.468,8.427,2.029,8.427,2.029c-0.624-2.341,1.717-6.242,1.717-6.242c7.06-9.386,80.523-31.679,80.523-31.679
	S111.699,24.51,90.32,35.278z"/>
</svg>
