<?xml version="1.0" encoding="UTF-8" standalone="no"?>
<svg width="22px" height="12px" viewBox="0 0 22 12" version="1.1" xmlns="http://www.w3.org/2000/svg" xmlns:xlink="http://www.w3.org/1999/xlink">
    <!-- Generator: Sketch 3.6.1 (26313) - http://www.bohemiancoding.com/sketch -->
    <title>Shape</title>
    <desc>Created with Sketch.</desc>
    <defs></defs>
    <g id="Page-1" stroke="none" stroke-width="1" fill="none" fill-rule="evenodd">
        <g id="final-menu" transform="translate(-1201.000000, -341.000000)" fill="#FFFFFF">
            <g id="Group-2" transform="translate(1154.000000, -1.000000)">
                <path d="M47.3716435,342 C47.1664034,342 47,342.166646 47,342.372186 L47,353.091133 C47,353.296672 47.1664034,353.463319 47.3716435,353.463319 L67.7783561,353.463319 C67.9835962,353.463319 68.1499996,353.296672 68.1499996,353.091133 L68.1499996,342.372186 C68.1499996,342.166646 67.9835962,342 67.7783561,342 L47.3716435,342 Z M60.2305554,352.718994 L60.2305554,351.945964 C60.2305554,351.740425 60.064152,351.573778 59.8589119,351.573778 C59.6536718,351.573778 59.4872684,351.740425 59.4872684,351.945964 L59.4872684,352.718994 L47.743287,352.718994 L47.743287,342.744371 L59.4872684,342.744371 L59.4872684,349.518104 C59.4872684,349.723644 59.6536718,349.89029 59.8589119,349.89029 C60.064152,349.89029 60.2305554,349.723644 60.2305554,349.518104 L60.2305554,342.744371 L67.4067126,342.744371 L67.4067126,352.718994 L60.2305554,352.718994 Z M58.0749766,347.703652 L58.0749766,347.703652 C58.075023,348.25672 57.5006944,348.705064 56.7922026,348.705064 L54.8679718,348.57987 L53.92488,351.716326 L52.9437411,351.716326 L52.9437411,348.454676 L51.0071997,348.328692 L50.5089186,349.596775 L49.7475605,349.779471 L49.7475605,348.246764 L49.7345065,348.24588 C49.3732225,348.222386 49.0953261,347.986606 49.0953261,347.703606 L49.0952797,347.703606 C49.0952797,347.420605 49.3731761,347.184825 49.73446,347.161331 L49.747514,347.160447 L49.747514,345.665564 L50.5088722,345.848214 L50.9926591,347.07945 L52.9627414,346.951279 L52.9627414,343.712008 L53.9058332,343.712008 L54.8801432,346.82655 L56.7922026,346.702147 C57.500648,346.70224 58.0749766,347.150584 58.0749766,347.703652 L58.0749766,347.703652 Z M66.8120365,347.044279 C66.8120365,347.249818 66.6536847,347.416465 66.4583753,347.416465 L61.3656976,347.416465 C61.1703882,347.416465 61.0120363,347.249818 61.0120363,347.044279 C61.0120363,346.838739 61.1703882,346.672093 61.3656976,346.672093 L66.4583753,346.672093 C66.6536847,346.672093 66.8120365,346.838739 66.8120365,347.044279 L66.8120365,347.044279 Z M66.8120365,351.08133 C66.8120365,351.28687 66.6536847,351.453516 66.4583753,351.453516 L61.3656976,351.453516 C61.1703882,351.453516 61.0120363,351.28687 61.0120363,351.08133 C61.0120363,350.875791 61.1703882,350.709145 61.3656976,350.709145 L66.4583753,350.709145 C66.6536847,350.709145 66.8120365,350.875791 66.8120365,351.08133 L66.8120365,351.08133 Z M66.8120365,349.741508 C66.8120365,349.947048 66.6536847,350.113694 66.4583753,350.113694 L61.8066247,350.113694 C61.6113153,350.113694 61.4529635,349.947048 61.4529635,349.741508 C61.4529635,349.535969 61.6113153,349.369323 61.8066247,349.369323 L66.4583753,349.369323 C66.6536847,349.369323 66.8120365,349.535969 66.8120365,349.741508 L66.8120365,349.741508 Z M66.8120365,348.384147 C66.8120365,348.589687 66.6536847,348.756333 66.4583753,348.756333 L62.6388781,348.756333 C62.4435686,348.756333 62.2852168,348.589687 62.2852168,348.384147 C62.2852168,348.178608 62.4435686,348.011962 62.6388781,348.011962 L66.4583753,348.011962 C66.6536847,348.011962 66.8120365,348.178608 66.8120365,348.384147 L66.8120365,348.384147 Z M61.366806,346.094042 L66.5294435,346.094042 C66.7054353,346.094042 66.8481248,345.927396 66.8481248,345.721857 L66.8481248,343.712054 C66.8481248,343.506515 66.7054353,343.339868 66.5294435,343.339868 L61.366806,343.339868 C61.1908142,343.339868 61.0481247,343.506515 61.0481247,343.712054 L61.0481247,345.721857 C61.0481247,345.927396 61.1908142,346.094042 61.366806,346.094042 L61.366806,346.094042 Z M61.7914117,344.08424 L66,344.08424 L66,345.349671 L61.7914117,345.349671 L61.7914117,344.08424 L61.7914117,344.08424 Z" id="Shape"></path>
            </g>
        </g>
    </g>
</svg>