<?xml version="1.0" encoding="UTF-8" standalone="no"?>
<svg width="19px" height="20px" viewBox="0 0 19 20" version="1.1" xmlns="http://www.w3.org/2000/svg" xmlns:xlink="http://www.w3.org/1999/xlink">
    <!-- Generator: Sketch 3.6.1 (26313) - http://www.bohemiancoding.com/sketch -->
    <title>Menu Icon</title>
    <desc>Created with Sketch.</desc>
    <defs></defs>
    <g id="Page-1" stroke="none" stroke-width="1" fill="none" fill-rule="evenodd">
        <g id="Menu-Icon" fill="#666666">
            <g id="Capa_1" transform="translate(0.000000, 0.000000)">
                <g id="Group">
                    <path d="M5.18603323,0.591807858 C5.18603323,0.264340843 4.92165109,1.13686838e-13 4.59413292,1.13686838e-13 L0.60867082,1.13686838e-13 C0.281152648,1.13686838e-13 0.0167705088,0.264340843 0.0167705088,0.591807858 L0.0167705088,4.57862013 C0.0167705088,4.90608714 0.281152648,5.17042798 0.60867082,5.17042798 L4.59610592,5.17042798 C4.92362409,5.17042798 5.18800623,4.90608714 5.18800623,4.57862013 L5.18800623,0.591807858 L5.18603323,0.591807858 L5.18603323,0.591807858 Z" id="Shape"></path>
                    <path d="M12.0856179,0.591807858 C12.0856179,0.264340843 11.8212357,1.13686838e-13 11.4937175,1.13686838e-13 L7.50825545,1.13686838e-13 C7.18073728,1.13686838e-13 6.91635514,0.264340843 6.91635514,0.591807858 L6.91635514,4.57862013 C6.91635514,4.90608714 7.18073728,5.17042798 7.50825545,5.17042798 L11.4937175,5.17042798 C11.8212357,5.17042798 12.0856179,4.90608714 12.0856179,4.57862013 L12.0856179,0.591807858 L12.0856179,0.591807858 Z" id="Shape"></path>
                    <path d="M18.9852025,0.591807858 C18.9852025,0.264340843 18.7208204,1.13686838e-13 18.3933022,1.13686838e-13 L14.4078401,1.13686838e-13 C14.0803022,1.13686838e-13 13.8159398,0.264340843 13.8159398,0.591807858 L13.8159398,4.57862013 C13.8159398,4.90608714 14.0803022,5.17042798 14.4078401,5.17042798 L18.3952752,5.17042798 C18.7228131,5.17042798 18.9871755,4.90608714 18.9871755,4.57862013 L18.9871755,0.591807858 L18.9852025,0.591807858 L18.9852025,0.591807858 Z" id="Shape"></path>
                    <path d="M5.18603323,7.52779595 C5.18603323,7.20032894 4.92165109,6.93598809 4.59413292,6.93598809 L0.60867082,6.93598809 C0.281152648,6.93598809 0.0167705088,7.20032894 0.0167705088,7.52779595 L0.0167705088,11.5126355 C0.0167705088,11.8401025 0.281152648,12.1044434 0.60867082,12.1044434 L4.59610592,12.1044434 C4.92362409,12.1044434 5.18800623,11.8401025 5.18800623,11.5126355 L5.18800623,7.52779595 L5.18603323,7.52779595 L5.18603323,7.52779595 Z" id="Shape"></path>
                    <path d="M12.0856179,7.52779595 C12.0856179,7.20032894 11.8212357,6.93598809 11.4937175,6.93598809 L7.50825545,6.93598809 C7.18073728,6.93598809 6.91635514,7.20032894 6.91635514,7.52779595 L6.91635514,11.5126355 C6.91635514,11.8401025 7.18073728,12.1044434 7.50825545,12.1044434 L11.4937175,12.1044434 C11.8212357,12.1044434 12.0856179,11.8401025 12.0856179,11.5126355 L12.0856179,7.52779595 L12.0856179,7.52779595 Z" id="Shape"></path>
                    <path d="M18.9852025,7.52779595 C18.9852025,7.20032894 18.7208204,6.93598809 18.3933022,6.93598809 L14.4078401,6.93598809 C14.0803022,6.93598809 13.8159398,7.20032894 13.8159398,7.52779595 L13.8159398,11.5126355 C13.8159398,11.8401025 14.0803022,12.1044434 14.4078401,12.1044434 L18.3952752,12.1044434 C18.7228131,12.1044434 18.9871755,11.8401025 18.9871755,11.5126355 L18.9871755,7.52779595 L18.9852025,7.52779595 L18.9852025,7.52779595 Z" id="Shape"></path>
                    <path d="M4.59413292,13.8700035 L0.60867082,13.8700035 C0.281152648,13.8700035 0.0167705088,14.1343443 0.0167705088,14.4618113 L0.0167705088,18.4486236 C0.0167705088,18.7761301 0.281152648,19.0404315 0.60867082,19.0404315 L4.59610592,19.0404315 C4.92362409,19.0404315 5.18800623,18.7761301 5.18800623,18.4486236 L5.18800623,14.4618113 C5.18603323,14.136317 4.92165109,13.8700035 4.59413292,13.8700035 L4.59413292,13.8700035 Z" id="Shape"></path>
                    <path d="M11.4937175,13.8700035 L7.50825545,13.8700035 C7.18073728,13.8700035 6.91635514,14.1343443 6.91635514,14.4618113 L6.91635514,18.4486236 C6.91635514,18.7761301 7.18073728,19.0404315 7.50825545,19.0404315 L11.4937175,19.0404315 C11.8212357,19.0404315 12.0856179,18.7761301 12.0856179,18.4486236 L12.0856179,14.4618113 C12.0856179,14.136317 11.821216,13.8700035 11.4937175,13.8700035 L11.4937175,13.8700035 Z" id="Shape"></path>
                    <path d="M18.3933022,13.8700035 L14.4078401,13.8700035 C14.0803022,13.8700035 13.8159398,14.1343443 13.8159398,14.4618113 L13.8159398,18.4486236 C13.8159398,18.7761301 14.0803022,19.0404315 14.4078401,19.0404315 L18.3952752,19.0404315 C18.7228131,19.0404315 18.9871755,18.7761301 18.9871755,18.4486236 L18.9871755,14.4618113 C18.9852025,14.136317 18.7208204,13.8700035 18.3933022,13.8700035 L18.3933022,13.8700035 Z" id="Shape"></path>
                </g>
            </g>
        </g>
    </g>
</svg>