<?xml version="1.0" encoding="UTF-8" standalone="no"?>
<svg class="dashboard-icons" version="1.1" id="Layer_1" xmlns="http://www.w3.org/2000/svg" xmlns:xlink="http://www.w3.org/1999/xlink" x="0px" y="0px" viewBox="0 0 96 96" enable-background="new 0 0 96 96" xml:space="preserve">
<path class="svg-path" stroke-width="8" stroke="" d="M48.494,1.5C22.857,1.5,2,22.362,2,48.006c0,13.551,5.966,26.434,16.37,35.348l0.476,0.352
    C27.26,90.768,37.556,94.5,48.619,94.5c10.636,0,21.129-3.751,29.545-10.563l0.255-0.207l0.318-0.081
    c0.026-0.009,0.117-0.076,0.205-0.213l0.109-0.173l0.152-0.137C89.242,74.097,95,61.296,95,48.006C95,22.362,74.138,1.5,48.494,1.5z
     M76.883,83.088c-8.035,6.45-18.065,10.002-28.241,10.002c-10.472,0-20.229-3.416-28.265-9.878l-0.611-0.491l0.055-0.783
    c0.261-3.711,2.203-16.374,16.247-23.522l0.849-0.432l0.752,0.584c3.13,2.435,6.877,3.721,10.837,3.721
    c3.88,0,7.772-1.365,10.961-3.846l0.756-0.587l0.851,0.438c13.358,6.864,15.894,18.705,16.364,23.478l0.079,0.809L76.883,83.088z
     M32.312,44.695c0-8.93,7.265-16.194,16.194-16.194S64.7,35.765,64.7,44.695c0,8.929-7.265,16.194-16.194,16.194
    S32.312,53.624,32.312,44.695z M80.933,79.299l-1.959,2.023l-0.585-2.755c-1.346-6.329-5.117-15.097-15.438-20.922l-1.543-0.871
    l1.113-1.378c2.388-2.955,3.703-6.796,3.703-10.815c0-9.707-7.897-17.604-17.604-17.604c-9.708,0-17.605,7.897-17.605,17.604
    c0,3.799,1.294,7.556,3.743,10.865l1.013,1.37l-1.487,0.832c-11.121,6.221-14.425,15.758-15.405,20.889l-0.531,2.782l-2.003-2.003
    C8.004,70.976,3.411,59.856,3.411,48.006c0-24.866,20.229-45.095,45.095-45.095c24.865,0,45.095,20.229,45.095,45.095
    C93.601,59.749,89.102,70.862,80.933,79.299z"/>
</svg>