<?xml version="1.0" encoding="UTF-8" standalone="no"?>
<svg class="dashboard-icons" viewBox="0 0 96 51" version="1.1" xmlns="http://www.w3.org/2000/svg" xmlns:xlink="http://www.w3.org/1999/xlink" x="0px" y="0px">
    <g id="Page-1">
        <path class="svg-path" d="M94.3498868,0.0412955466 L1.61006289,0.0412955466 C0.72090566,0.0412955466 0,0.780898785 0,1.69311741 L0,49.265587 C0,50.1778057 0.72090566,50.9174089 1.61006289,50.9174089 L94.3498868,50.9174089 C95.239044,50.9174089 95.9599497,50.1778057 95.9599497,49.265587 L95.9599497,1.69311741 C95.9599497,0.780898785 95.239044,0.0412955466 94.3498868,0.0412955466 L94.3498868,0.0412955466 Z M92.7398239,47.6139717 L57.3184403,47.6139717 L57.3184403,44.1831377 C57.3184403,43.270919 56.5975346,42.5313158 55.7083774,42.5313158 C54.8192201,42.5313158 54.0983145,43.270919 54.0983145,44.1831377 L54.0983145,47.6139717 L3.22012579,47.6139717 L3.22012579,3.34493927 L54.0983145,3.34493927 L54.0983145,33.4078907 C54.0983145,34.3201093 54.8192201,35.0597126 55.7083774,35.0597126 C56.5975346,35.0597126 57.3184403,34.3201093 57.3184403,33.4078907 L57.3184403,3.34493927 L92.7398239,3.34493927 L92.7398239,47.6139717 L92.7398239,47.6139717 Z M47.9798742,25.3550526 L47.9798742,25.3550526 C47.9800755,27.8096599 45.4919245,29.7994858 42.4225409,29.7994858 L34.086239,29.2438543 L30.0005031,43.1639636 L25.7499371,43.1639636 L25.7499371,28.6882227 L17.3603019,28.129081 L15.2016101,33.7570445 L11.903195,34.5678826 L11.903195,27.7654737 L11.8466415,27.7615506 C10.2814591,27.6572794 9.07753459,26.6108502 9.07753459,25.3548462 L9.07733333,25.3548462 C9.07733333,24.0988421 10.2812579,23.052413 11.8464403,22.9481417 L11.9029937,22.9442186 L11.9029937,16.3096761 L15.2014088,17.1203077 L17.2973082,22.5847409 L25.8322516,22.0158947 L25.8322516,7.63946964 L29.9179874,7.63946964 L34.1389686,21.4623279 L42.4225409,20.9102065 C45.4917233,20.9106194 47.9798742,22.9004453 47.9798742,25.3550526 L47.9798742,25.3550526 Z M90.163522,22.4286437 C90.163522,23.3408623 89.4426164,24.0804656 88.5534591,24.0804656 L65.3687547,24.0804656 C64.4795975,24.0804656 63.7586918,23.3408623 63.7586918,22.4286437 C63.7586918,21.5164251 64.4795975,20.7768219 65.3687547,20.7768219 L88.5534591,20.7768219 C89.4426164,20.7768219 90.163522,21.5164251 90.163522,22.4286437 L90.163522,22.4286437 Z M90.163522,40.345749 C90.163522,41.2579676 89.4426164,41.9975709 88.5534591,41.9975709 L65.3687547,41.9975709 C64.4795975,41.9975709 63.7586918,41.2579676 63.7586918,40.345749 C63.7586918,39.4335304 64.4795975,38.6939271 65.3687547,38.6939271 L88.5534591,38.6939271 C89.4426164,38.6939271 90.163522,39.4335304 90.163522,40.345749 L90.163522,40.345749 Z M90.163522,34.3993968 C90.163522,35.3116154 89.4426164,36.0512186 88.5534591,36.0512186 L67.3761006,36.0512186 C66.4869434,36.0512186 65.7660377,35.3116154 65.7660377,34.3993968 C65.7660377,33.4871781 66.4869434,32.7475749 67.3761006,32.7475749 L88.5534591,32.7475749 C89.4426164,32.7475749 90.163522,33.4871781 90.163522,34.3993968 L90.163522,34.3993968 Z M90.163522,28.3752024 C90.163522,29.2874211 89.4426164,30.0270243 88.5534591,30.0270243 L71.1649811,30.0270243 C70.2758239,30.0270243 69.5549182,29.2874211 69.5549182,28.3752024 C69.5549182,27.4629838 70.2758239,26.7233806 71.1649811,26.7233806 L88.5534591,26.7233806 C89.4426164,26.7233806 90.163522,27.4629838 90.163522,28.3752024 L90.163522,28.3752024 Z M62.4704403,18.211336 L88.5534591,18.211336 C89.4426164,18.211336 90.163522,17.4717328 90.163522,16.5595142 L90.163522,7.63967611 C90.163522,6.72745749 89.4426164,5.98785425 88.5534591,5.98785425 L62.4704403,5.98785425 C61.581283,5.98785425 60.8603774,6.72745749 60.8603774,7.63967611 L60.8603774,16.5595142 C60.8603774,17.4717328 61.581283,18.211336 62.4704403,18.211336 L62.4704403,18.211336 Z M64.0805031,9.29149798 L86.9433962,9.29149798 L86.9433962,14.9076923 L64.0805031,14.9076923 L64.0805031,9.29149798 L64.0805031,9.29149798 Z" id="Shape"></path>
    </g>
</svg>