<?xml version="1.0" encoding="UTF-8" standalone="no"?>
<svg width="150px" height="81px" viewBox="0 0 150 81" version="1.1" xmlns="http://www.w3.org/2000/svg" xmlns:xlink="http://www.w3.org/1999/xlink">
    <!-- Generator: Sketch 3.6.1 (26313) - http://www.bohemiancoding.com/sketch -->
    <title>passenger-limit</title>
    <desc>Created with Sketch.</desc>
    <defs></defs>
    <g id="Page-1" stroke="none" stroke-width="1" fill="none" fill-rule="evenodd">
        <g id="passenger-limit" fill="#FFFFFF">
            <rect id="Rectangle-3" x="0" y="0" width="36" height="81"></rect>
            <rect id="Rectangle-3-Copy" x="113" y="0" width="37" height="81"></rect>
            <path d="M36,0 L113,0 L113,81 L36,81 L36,0 Z M74.51073,24.3199894 C76.6698849,24.3199894 78.4202258,22.5118016 78.4202258,20.2812889 C78.4202258,18.0507762 76.6698849,16.2425884 74.51073,16.2425884 C72.3515751,16.2425884 70.6012342,18.0507762 70.6012342,20.2812889 C70.6012342,22.5118016 72.3515751,24.3199894 74.51073,24.3199894 Z M75.8725913,26.2456977 C74.8984701,26.0413881 73.8393412,26.050349 72.8825686,26.2833338 C66.3829342,27.0701052 64.2724831,34.8419378 64.8684058,40.7678146 C65.1268992,43.3297504 69.036395,43.3566332 68.7752993,40.7678146 C68.5584424,38.6082255 68.6512572,35.3491277 69.7624318,33.0327218 L69.7624318,41.478418 C69.7624318,41.5778845 69.7719735,41.6710785 69.7763107,41.7669606 C69.7737084,41.8126615 69.7632993,41.8511936 69.7632993,41.8977904 C69.7632993,48.5996856 69.7520227,55.2988924 69.4839876,61.9954109 C69.36515,64.9722388 73.8332692,64.9605895 73.9512393,61.9954109 C74.1611568,56.746982 74.2140698,51.4958649 74.2262139,46.2438516 C74.4378662,46.2581891 74.6495184,46.2581891 74.8611708,46.2456438 C74.8741822,51.4976571 74.9253604,56.7487742 75.133543,61.9954109 C75.2523806,64.9605895 79.7204997,64.9722388 79.6007947,61.9954109 C79.3327596,55.2988924 79.3232179,48.5996856 79.3232179,41.8977904 C79.3232179,41.6898964 79.2963277,41.5008203 79.2555586,41.318913 C79.2494866,38.4092923 79.1419256,35.4969834 79.1748878,32.5891548 C80.5055216,34.9163137 80.6269615,38.4657463 80.3962258,40.7660224 C80.1342626,43.3530489 84.0446259,43.3270622 84.3031193,40.7660224 C84.9129208,34.7173806 82.7009807,26.7439266 75.8725913,26.2456977 Z" id="Combined-Shape"></path>
        </g>
    </g>
</svg>