<?xml version="1.0" encoding="UTF-8" standalone="no"?>
<svg width="26px" height="63px" viewBox="0 0 26 63" version="1.1" xmlns="http://www.w3.org/2000/svg" xmlns:xlink="http://www.w3.org/1999/xlink">
    <!-- Generator: Sketch 3.6.1 (26313) - http://www.bohemiancoding.com/sketch -->
    <title>Passengers Hover</title>
    <desc>Created with Sketch.</desc>
    <defs></defs>
    <g id="Page-1" stroke="none" stroke-width="1" fill="none" fill-rule="evenodd">
        <g id="Passengers-Hover" fill="#E1E1E1">
            <ellipse id="Oval" cx="13.0139351" cy="6.04017338" rx="5.0772673" ry="5.18549203"></ellipse>
            <path d="M14.7825861,13.6981798 C13.5174937,13.4358563 12.1420015,13.4473617 10.8994398,13.7465026 C2.45835615,14.7566783 -0.282489501,24.7353276 0.491436089,32.3438607 C0.827141803,35.6332598 5.9044091,35.667776 5.5653238,32.3438607 C5.28369149,29.5710549 5.40423012,25.3865343 6.84731408,22.4123836 L6.84731408,33.2562404 C6.84731408,33.3839505 6.8597059,33.5036069 6.86533854,33.6267148 C6.86195896,33.6853925 6.8484406,33.7348658 6.8484406,33.7946939 C6.8484406,42.3995963 6.83379572,51.001047 6.48569819,59.5990461 C6.33136368,63.4211461 12.1341158,63.406189 12.2873238,59.5990461 C12.5599439,52.8603226 12.6286621,46.1181475 12.6444336,39.3748218 C12.9193067,39.3932305 13.1941798,39.3932305 13.469053,39.3771229 C13.4859509,46.1204486 13.5524161,52.8626237 13.8227831,59.5990461 C13.9771177,63.406189 19.7798698,63.4211461 19.6244087,59.5990461 C19.2763112,51.001047 19.2639194,42.3995963 19.2639194,33.7946939 C19.2639194,33.5277682 19.228997,33.2850039 19.1760501,33.0514439 C19.1681644,29.3156346 19.0284748,25.5763737 19.0712829,21.8428654 C20.7993787,24.8308225 20.9570928,29.3881187 20.6574361,32.3415596 C20.3172242,35.6631739 25.3956181,35.6298082 25.7313238,32.3415596 C26.5232738,24.5754023 23.6506243,14.3378811 14.7825861,13.6981798 L14.7825861,13.6981798 Z" id="Shape"></path>
        </g>
    </g>
</svg>