<?xml version="1.0" encoding="UTF-8" standalone="no"?>
<svg width="19px" height="18px" viewBox="0 0 19 18" version="1.1" xmlns="http://www.w3.org/2000/svg" xmlns:xlink="http://www.w3.org/1999/xlink">
    <!-- Generator: Sketch 3.6.1 (26313) - http://www.bohemiancoding.com/sketch -->
    <title>Passenger Seat</title>
    <desc>Created with Sketch.</desc>
    <defs></defs>
    <g id="Page-1" stroke="none" stroke-width="1" fill="none" fill-rule="evenodd">
        <g id="Passenger-Seat" fill="#000000">
            <g id="security" transform="translate(9.000000, 9.000000) scale(-1, 1) translate(-9.000000, -9.000000) ">
                <g id="Capa_1">
                    <path d="M12.7199695,17.2716853 L1.30669036,17.2716853 C0.948426396,17.2716853 0.641878173,17.1341726 0.420121827,16.8740406 C0.150852792,16.5580812 0.0370964467,16.0772893 0.115675127,15.5881827 C0.200375635,15.0611574 0.506832487,14.310731 1.09169543,13.9298071 C2.06077157,13.298802 3.07059898,13.2993503 3.38637563,13.3179898 C3.96018274,12.8450558 4.73436548,12.522335 5.77891371,12.522335 C7.40878173,12.522335 8.89455838,12.7292893 10.0501218,12.9621015 C10.0994619,12.556599 10.2276548,11.6956142 10.5252487,10.5754112 C10.9021523,9.15633503 11.4975228,7.72117766 11.5946497,7.49064975 C11.6157563,6.78864975 11.6708528,6.07120812 11.7733706,5.3624467 C11.4417868,5.24805076 11.1640203,5.02455838 10.9785381,4.71965482 C10.7602538,4.36056853 10.7012284,3.93980711 10.8122437,3.53457868 L11.2819797,1.81964467 C11.4905787,1.05788832 12.2606497,0.581482234 13.0354721,0.735989848 L13.9579492,0.91964467 C15.6726091,-0.279411168 17.7823553,0.157796954 17.8132386,0.164741117 C17.9334822,0.191147208 18.0111472,0.308010152 17.9888528,0.429167513 L15.2855635,15.1347107 C15.057868,16.3729645 13.9789645,17.2716853 12.7199695,17.2716853 L12.7199695,17.2716853 Z M2.21984772,16.8148325 L12.7198782,16.8148325 C13.7583959,16.8148325 14.6483452,16.0735431 14.8361117,15.0521117 L17.497736,0.573807107 C16.9386396,0.495685279 15.4329442,0.396182741 14.1760508,1.31409137 C14.1556751,1.33684264 14.1310051,1.35529949 14.1035939,1.36845685 C13.4395127,1.87830457 12.852731,2.68236548 12.5234315,3.93761421 C11.3878782,8.26684264 12.6074924,13.7125279 12.6199188,13.7670761 C12.6385584,13.8486701 12.6110558,13.9339188 12.5481929,13.9893807 C12.4853299,14.0445685 12.3972487,14.061198 12.3185787,14.0325076 C12.289797,14.022 9.40093401,12.9792792 5.77900508,12.9792792 C4.91509645,12.9792792 4.19601015,13.2227817 3.62795939,13.7056751 C3.61525888,13.7197462 3.60082234,13.732264 3.58501523,13.7428629 C3.22519797,14.0607411 2.92769543,14.4773909 2.69415228,14.991533 C2.36348223,15.7194822 2.25493401,16.4521827 2.21984772,16.8148325 L2.21984772,16.8148325 Z M2.91837563,13.7839797 C2.50930964,13.8194315 1.91220305,13.9407716 1.34104569,14.3125584 C0.910873096,14.5927005 0.642243655,15.1915431 0.566771574,15.6606396 C0.509116751,16.0194518 0.584314721,16.3623655 0.767878173,16.5777259 C0.901918782,16.735066 1.08319797,16.8148325 1.30669036,16.8148325 L1.76226396,16.8148325 C1.8139797,16.2705381 2.0308934,14.8440609 2.91837563,13.7839797 L2.91837563,13.7839797 Z M10.4992995,13.0572183 C11.2062335,13.2145584 11.7561929,13.3723553 12.0945381,13.4777056 C11.9462437,12.7064467 11.6396041,10.8791269 11.5909036,8.75211168 C11.3875127,9.30481218 11.1504975,10.0010558 10.9667513,10.6926396 C10.6682437,11.8165888 10.5436142,12.6862538 10.4992995,13.0572183 L10.4992995,13.0572183 Z M12.7418071,1.16396954 C12.2758173,1.16396954 11.849665,1.47609137 11.7225685,1.94034518 L11.2528325,3.65527919 C11.1753503,3.93807107 11.2166497,4.23182741 11.3689645,4.48236548 C11.4838173,4.67122843 11.6495635,4.81550254 11.8471066,4.90120812 C11.9111574,4.53654822 11.9886396,4.17554315 12.0814721,3.82175635 C12.385736,2.66162437 12.8989645,1.85345178 13.4967107,1.29371574 L12.9462944,1.18425381 C12.8778579,1.17045685 12.8094213,1.16396954 12.7418071,1.16396954 L12.7418071,1.16396954 Z" id="Shape"></path>
                </g>
            </g>
            <g id="security-copy" transform="translate(10.000000, 9.000000) scale(-1, 1) translate(-10.000000, -9.000000) translate(1.000000, 0.000000)">
                <g id="Capa_1">
                    <path d="M12.7199695,17.2716853 L1.30669036,17.2716853 C0.948426396,17.2716853 0.641878173,17.1341726 0.420121827,16.8740406 C0.150852792,16.5580812 0.0370964467,16.0772893 0.115675127,15.5881827 C0.200375635,15.0611574 0.506832487,14.310731 1.09169543,13.9298071 C2.06077157,13.298802 3.07059898,13.2993503 3.38637563,13.3179898 C3.96018274,12.8450558 4.73436548,12.522335 5.77891371,12.522335 C7.40878173,12.522335 8.89455838,12.7292893 10.0501218,12.9621015 C10.0994619,12.556599 10.2276548,11.6956142 10.5252487,10.5754112 C10.9021523,9.15633503 11.4975228,7.72117766 11.5946497,7.49064975 C11.6157563,6.78864975 11.6708528,6.07120812 11.7733706,5.3624467 C11.4417868,5.24805076 11.1640203,5.02455838 10.9785381,4.71965482 C10.7602538,4.36056853 10.7012284,3.93980711 10.8122437,3.53457868 L11.2819797,1.81964467 C11.4905787,1.05788832 12.2606497,0.581482234 13.0354721,0.735989848 L13.9579492,0.91964467 C15.6726091,-0.279411168 17.7823553,0.157796954 17.8132386,0.164741117 C17.9334822,0.191147208 18.0111472,0.308010152 17.9888528,0.429167513 L15.2855635,15.1347107 C15.057868,16.3729645 13.9789645,17.2716853 12.7199695,17.2716853 L12.7199695,17.2716853 Z M2.21984772,16.8148325 L12.7198782,16.8148325 C13.7583959,16.8148325 14.6483452,16.0735431 14.8361117,15.0521117 L17.497736,0.573807107 C16.9386396,0.495685279 15.4329442,0.396182741 14.1760508,1.31409137 C14.1556751,1.33684264 14.1310051,1.35529949 14.1035939,1.36845685 C13.4395127,1.87830457 12.852731,2.68236548 12.5234315,3.93761421 C11.3878782,8.26684264 12.6074924,13.7125279 12.6199188,13.7670761 C12.6385584,13.8486701 12.6110558,13.9339188 12.5481929,13.9893807 C12.4853299,14.0445685 12.3972487,14.061198 12.3185787,14.0325076 C12.289797,14.022 9.40093401,12.9792792 5.77900508,12.9792792 C4.91509645,12.9792792 4.19601015,13.2227817 3.62795939,13.7056751 C3.61525888,13.7197462 3.60082234,13.732264 3.58501523,13.7428629 C3.22519797,14.0607411 2.92769543,14.4773909 2.69415228,14.991533 C2.36348223,15.7194822 2.25493401,16.4521827 2.21984772,16.8148325 L2.21984772,16.8148325 Z M2.91837563,13.7839797 C2.50930964,13.8194315 1.91220305,13.9407716 1.34104569,14.3125584 C0.910873096,14.5927005 0.642243655,15.1915431 0.566771574,15.6606396 C0.509116751,16.0194518 0.584314721,16.3623655 0.767878173,16.5777259 C0.901918782,16.735066 1.08319797,16.8148325 1.30669036,16.8148325 L1.76226396,16.8148325 C1.8139797,16.2705381 2.0308934,14.8440609 2.91837563,13.7839797 L2.91837563,13.7839797 Z M10.4992995,13.0572183 C11.2062335,13.2145584 11.7561929,13.3723553 12.0945381,13.4777056 C11.9462437,12.7064467 11.6396041,10.8791269 11.5909036,8.75211168 C11.3875127,9.30481218 11.1504975,10.0010558 10.9667513,10.6926396 C10.6682437,11.8165888 10.5436142,12.6862538 10.4992995,13.0572183 L10.4992995,13.0572183 Z M12.7418071,1.16396954 C12.2758173,1.16396954 11.849665,1.47609137 11.7225685,1.94034518 L11.2528325,3.65527919 C11.1753503,3.93807107 11.2166497,4.23182741 11.3689645,4.48236548 C11.4838173,4.67122843 11.6495635,4.81550254 11.8471066,4.90120812 C11.9111574,4.53654822 11.9886396,4.17554315 12.0814721,3.82175635 C12.385736,2.66162437 12.8989645,1.85345178 13.4967107,1.29371574 L12.9462944,1.18425381 C12.8778579,1.17045685 12.8094213,1.16396954 12.7418071,1.16396954 L12.7418071,1.16396954 Z" id="Shape"></path>
                </g>
            </g>
        </g>
    </g>
</svg>