<?xml version="1.0" encoding="UTF-8" standalone="no"?>
<svg width="20px" height="13px" viewBox="0 0 20 13" version="1.1" xmlns="http://www.w3.org/2000/svg" xmlns:xlink="http://www.w3.org/1999/xlink">
    <!-- Generator: Sketch 3.6.1 (26313) - http://www.bohemiancoding.com/sketch -->
    <title>Sleeping Passengers</title>
    <desc>Created with Sketch.</desc>
    <defs>
        <path id="path-1" d="M9.9935625,0.0233957219 L0.00375,0.0233957219 L0.00375,12.7272727 L19.983375,12.7272727 L19.983375,0.0233957219 L9.9935625,0.0233957219 L9.9935625,0.0233957219 Z"></path>
    </defs>
    <g id="Page-1" stroke="none" stroke-width="1" fill="none" fill-rule="evenodd">
        <g id="Sleeping-Passengers">
            <mask id="mask-2" fill="white">
                <use xlink:href="#path-1"></use>
            </mask>
            <g id="Clip-2"></g>
            <path d="M19.608375,3.337041 C19.401125,3.337041 19.233375,3.50474153 19.233375,3.71137255 L19.233375,5.09053476 L5.4873125,5.09053476 C5.67625,4.86974153 5.7841875,4.61263815 5.7841875,4.33550802 C5.7841875,3.4923262 4.79125,2.83188057 3.5234375,2.83188057 C2.255875,2.83188057 1.2629375,3.4923262 1.2629375,4.33550802 C1.2629375,4.61263815 1.370625,4.86974153 1.5598125,5.09053476 L0.75,5.09053476 L0.75,0.397727273 C0.75,0.191096257 0.582,0.0233957219 0.375,0.0233957219 C0.168,0.0233957219 0,0.191096257 0,0.397727273 L0,12.3529412 C0,12.5596346 0.168,12.7272727 0.375,12.7272727 C0.582,12.7272727 0.75,12.5596346 0.75,12.3529412 L0.75,8.89230838 L19.233375,8.89230838 L19.233375,12.3529412 C19.233375,12.5596346 19.401125,12.7272727 19.608375,12.7272727 C19.8154375,12.7272727 19.983375,12.5596346 19.983375,12.3529412 L19.983375,3.71137255 C19.983375,3.50474153 19.8154375,3.337041 19.608375,3.337041 L19.608375,3.337041 Z M2.0129375,4.33550802 C2.0129375,3.97901961 2.6589375,3.58054367 3.5234375,3.58054367 C4.3881875,3.58054367 5.0341875,3.97901961 5.0341875,4.33550802 C5.0341875,4.69180927 4.3881875,5.09053476 3.5234375,5.09053476 C2.6589375,5.09053476 2.0129375,4.69180927 2.0129375,4.33550802 L2.0129375,4.33550802 Z M0.75,8.14364528 L19.233375,8.14364528 L19.233375,5.83919786 L0.75,5.83919786 L0.75,8.14364528 Z" id="Fill-1" fill="#000000" mask="url(#mask-2)"></path>
        </g>
    </g>
</svg>