<?xml version="1.0" encoding="UTF-8" standalone="no"?>
<svg width="24px" height="31px" viewBox="0 0 24 31" version="1.1" xmlns="http://www.w3.org/2000/svg" xmlns:xlink="http://www.w3.org/1999/xlink">
    <!-- Generator: Sketch 3.6.1 (26313) - http://www.bohemiancoding.com/sketch -->
    <title>pin-arr-right</title>
    <desc>Created with Sketch.</desc>
    <defs></defs>
    <g id="Page-1" stroke="none" stroke-width="1" fill="none" fill-rule="evenodd">
        <g id="dep-pin-right-01" fill="#C52032">
            <g id="pin-arr-right">
                <g id="XMLID_31_">
                    <g id="Layer_8_4_">
                        <path d="M5.7,21.5 L12,30.7 L18.3,21.5 C21.5,19.4 23.6,15.9 23.6,11.8 C23.6,5.4 18.4,0.3 12.1,0.3 C5.8,0.3 0.5,5.5 0.5,11.8 C0.5,15.9 2.6,19.5 5.7,21.5 L5.7,21.5 Z M21.7,11.8 C21.7,17.1 17.4,21.5 12,21.5 C6.6,21.5 2.3,17.2 2.3,11.8 C2.3,6.4 6.7,2.2 12,2.2 C17.3,2.2 21.7,6.5 21.7,11.8 L21.7,11.8 Z" id="XMLID_32_"></path>
                    </g>
                </g>
                <g id="XMLID_29_" transform="translate(7.000000, 6.000000)">
                    <path d="M9.8,10.8 C10.1,10.5 9.2,9.2 7.8,7.7 C7.7,7.6 7.6,7.5 7.5,7.4 L8.1,1.2 L7.7,0.8 L5.9,5.9 C4.8,4.9 3.6,3.8 2.8,3.2 L3.4,1 L3.3,0.9 L2.3,2.9 C2.2,2.8 2.1,2.7 2.1,2.8 C2.1,2.8 2.1,2.9 2.2,3.1 L0.2,4 L0.3,4.1 L2.5,3.6 C3.1,4.4 4.1,5.6 5.1,6.8 L0,8.4 L0.4,8.8 L6.6,8.4 C6.7,8.5 6.8,8.6 6.9,8.7 C8.2,10.1 9.6,11 9.8,10.8 L9.8,10.8 Z" id="XMLID_30_"></path>
                </g>
            </g>
        </g>
    </g>
</svg>