<?xml version="1.0" encoding="UTF-8" standalone="no"?>
<svg width="24px" height="31px" viewBox="0 0 24 31" version="1.1" xmlns="http://www.w3.org/2000/svg" xmlns:xlink="http://www.w3.org/1999/xlink">
    <!-- Generator: Sketch 3.6.1 (26313) - http://www.bohemiancoding.com/sketch -->
    <title>pin-dep-right</title>
    <desc>Created with Sketch.</desc>
    <defs></defs>
    <g id="Page-1" stroke="none" stroke-width="1" fill="none" fill-rule="evenodd">
        <g id="dep-pin-right-01" transform="translate(0.000000, -53.000000)" fill="#C52032">
            <g id="pin-dep-right" transform="translate(0.000000, 53.000000)">
                <g id="XMLID_71_">
                    <g id="Layer_8_3_">
                        <path d="M23.4,11.8 C23.4,5.4 18.2,0.3 11.9,0.3 C5.6,0.3 0.4,5.5 0.4,11.8 C0.4,15.9 2.5,19.4 5.7,21.5 L12,30.7 L18.3,21.5 C21.3,19.5 23.4,15.9 23.4,11.8 L23.4,11.8 Z M11.9,2.2 C17.2,2.2 21.6,6.5 21.6,11.9 C21.6,17.2 17.3,21.6 11.9,21.6 C6.5,21.6 2.2,17.3 2.2,11.9 C2.2,6.5 6.6,2.2 11.9,2.2 L11.9,2.2 Z" id="XMLID_72_"></path>
                    </g>
                </g>
                <g id="XMLID_69_" transform="translate(6.000000, 7.000000)">
                    <path d="M11,0.4 C11.2,0.7 10.2,2 8.7,3.3 C8.6,3.4 8.5,3.5 8.4,3.6 L8.5,9.8 L8.1,10.2 L6.7,5 C5.5,5.9 4.2,6.9 3.4,7.4 L3.8,9.6 L3.7,9.7 L2.9,7.7 C2.7,7.8 2.6,7.8 2.6,7.8 C2.6,7.8 2.6,7.7 2.7,7.5 L0.8,6.4 L0.9,6.3 L3.1,7 C3.7,6.3 4.9,5.1 5.9,4.1 L0.9,2.1 L1.3,1.7 L7.5,2.6 C7.6,2.5 7.7,2.4 7.8,2.3 C9.3,1 10.7,0.1 11,0.4 L11,0.4 Z" id="XMLID_70_"></path>
                </g>
            </g>
        </g>
    </g>
</svg>