<?xml version="1.0" encoding="UTF-8" standalone="no"?>
<svg width="24px" height="31px" viewBox="0 0 24 31" version="1.1" xmlns="http://www.w3.org/2000/svg" xmlns:xlink="http://www.w3.org/1999/xlink">
    <!-- Generator: Sketch 3.6.1 (26313) - http://www.bohemiancoding.com/sketch -->
    <title>pin-dep-left</title>
    <desc>Created with Sketch.</desc>
    <defs></defs>
    <g id="Page-1" stroke="none" stroke-width="1" fill="none" fill-rule="evenodd">
        <g id="dep-pin-right-01" transform="translate(-44.000000, -53.000000)" fill="#C52032">
            <g id="pin-dep-left" transform="translate(44.000000, 53.000000)">
                <g id="XMLID_78_">
                    <g id="Layer_8_1_">
                        <path d="M5.7,21.5 L12,30.7 L18.3,21.5 C21.5,19.4 23.6,15.9 23.6,11.8 C23.6,5.4 18.4,0.3 12.1,0.3 C5.8,0.3 0.6,5.5 0.6,11.8 C0.5,15.9 2.6,19.5 5.7,21.5 L5.7,21.5 Z M21.7,11.8 C21.7,17.1 17.4,21.5 12,21.5 C6.6,21.5 2.3,17.2 2.3,11.8 C2.3,6.5 6.6,2.1 12,2.1 C17.4,2.1 21.7,6.5 21.7,11.8 L21.7,11.8 Z" id="XMLID_79_"></path>
                    </g>
                </g>
                <g id="XMLID_76_" transform="translate(6.000000, 7.000000)">
                    <path d="M0.9,0.4 C0.7,0.7 1.7,2 3.2,3.3 C3.3,3.4 3.4,3.5 3.5,3.6 L3.4,9.8 L3.8,10.2 L5.2,5 C6.4,5.9 7.7,6.9 8.5,7.4 L8.1,9.6 L8.2,9.7 L9,7.7 C9.2,7.8 9.3,7.8 9.3,7.8 C9.3,7.8 9.3,7.7 9.2,7.5 L11.1,6.4 L11,6.3 L8.8,7 C8.2,6.3 7,5.1 6,4.1 L11,2.1 L10.6,1.7 L4.4,2.6 C4.3,2.5 4.2,2.4 4.1,2.3 C2.6,1 1.2,0.1 0.9,0.4 L0.9,0.4 Z" id="XMLID_77_"></path>
                </g>
            </g>
        </g>
    </g>
</svg>