<?xml version="1.0" encoding="UTF-8" standalone="no"?>
<svg width="60px" height="60px" viewBox="0 0 60 60" version="1.1" xmlns="http://www.w3.org/2000/svg" xmlns:xlink="http://www.w3.org/1999/xlink">
    <!-- Generator: Sketch 3.6.1 (26313) - http://www.bohemiancoding.com/sketch -->
    <title>Plan a Flight Hover</title>
    <desc>Created with Sketch.</desc>
    <defs></defs>
    <g id="Page-1" stroke="none" stroke-width="1" fill="none" fill-rule="evenodd">
        <g id="Plan-a-Flight-Hover" fill="#E1E1E1">
            <path d="M42.9637403,26.4778756 C42.3034286,26.4778756 41.6823896,26.7343523 41.2153247,27.2000518 L36.266961,32.1357513 L32.1434805,32.1360622 L33.1463377,31.1358031 C33.3899221,30.8928497 33.3899221,30.4992746 33.1463377,30.2564767 C32.9027532,30.0138342 32.508,30.0138342 32.2648831,30.2564767 L30.3802597,32.1362176 L22.3474286,32.1368394 C22.1819221,32.1368394 22.0235844,32.2022798 21.9067013,32.3188601 L20.4734026,33.7484456 C20.3308052,33.8906736 20.265974,34.0929016 20.2994805,34.2912435 C20.3328312,34.4895855 20.4604675,34.6596373 20.6417143,34.7474611 L29.3961039,38.9891192 L28.1197403,40.2621762 L22.569039,40.2612435 L22.5688831,40.2612435 C22.4035325,40.2612435 22.245039,40.3266839 22.1281558,40.4432642 L21.3988052,41.1705699 C21.2562078,41.3127979 21.1913766,41.5150259 21.2248831,41.7133679 C21.2582338,41.9117098 21.3858701,42.0817617 21.5671169,42.1695855 L25.1727273,43.9164249 C25.0731429,44.2094301 24.9981818,44.5109845 24.9571948,44.8189119 C24.8862857,45.3492746 25.0480519,45.8841451 25.401039,46.286114 C25.754961,46.6893264 26.2642597,46.9206218 26.7984935,46.9206218 L26.7988052,46.9206218 C26.8814026,46.9206218 26.9650909,46.9150259 27.048,46.9041451 C27.3528312,46.8635751 27.6514286,46.7902073 27.9417662,46.6929016 L29.6385974,50.2182902 C29.721974,50.3914508 29.8807792,50.5164249 30.0688831,50.5569948 C30.1126753,50.5664767 30.1567792,50.5709845 30.2007273,50.5709845 C30.3458182,50.5709845 30.4877922,50.5204663 30.6010909,50.4258031 L31.3946494,49.7626943 C31.536,49.6445596 31.6176623,49.47 31.6176623,49.286114 L31.6167273,43.7497927 L32.8065974,42.5630052 L36.7983896,50.8602591 C36.8817662,51.0334197 37.0407273,51.1585492 37.2291429,51.1991192 C37.2726234,51.2084456 37.3167273,51.2131088 37.3605195,51.2131088 C37.5057662,51.2131088 37.6480519,51.1624352 37.7613506,51.0674611 L39.3194805,49.762228 C39.4605195,49.6440933 39.542026,49.4698446 39.542026,49.286114 L39.5426494,41.3581865 L41.4691948,39.4364767 C41.7127792,39.1935233 41.7127792,38.7999482 41.4691948,38.5571503 C41.2256104,38.3143523 40.8308571,38.3143523 40.5877403,38.5571503 L39.5428052,39.5993782 L39.5431169,35.8439378 L44.7126234,30.6878238 C45.1796883,30.2219689 45.436987,29.6026943 45.436987,28.9439378 C45.436987,28.2851813 45.1796883,27.6659067 44.7126234,27.2000518 C44.2452468,26.7343523 43.6243636,26.4778756 42.9637403,26.4778756 L42.9637403,26.4778756 Z M21.974026,34.0103627 L22.6058182,33.3802073 L35.0202078,33.3792746 L30.328987,38.058342 L21.974026,34.0103627 L21.974026,34.0103627 Z M23.0485714,41.5047668 L26.8731429,41.5053886 L26.3311169,42.0460104 C26.1010909,42.2754404 25.898961,42.5297409 25.7206753,42.7992746 L23.0485714,41.5047668 L23.0485714,41.5047668 Z M30.3705974,48.8659585 L29.0629091,46.1488601 C29.3368831,45.9696373 29.5952727,45.7658549 29.8279481,45.5337824 L30.369974,44.9931606 L30.3705974,48.8659585 L30.3705974,48.8659585 Z M38.2948052,48.9963731 L37.5744935,49.5997927 L33.7407273,41.6309845 L38.2957403,37.0876166 L38.2948052,48.9963731 L38.2948052,48.9963731 Z M43.8307013,29.8084974 L30.5526234,43.0523316 C30.5523117,43.0526425 30.5521558,43.0527979 30.5518442,43.0531088 L28.9463377,44.654456 C28.3923117,45.2070466 27.6595325,45.5681347 26.882961,45.6715026 C26.8545974,45.6752332 26.8263896,45.6770984 26.7984935,45.6770984 C26.6236364,45.6770984 26.4562597,45.6004663 26.3390649,45.466943 C26.2210909,45.3326425 26.1691948,45.1607254 26.1928831,44.9832124 C26.2963636,44.2088083 26.6585455,43.4779275 27.2125714,42.9253368 L42.0969351,28.0793782 C42.3285195,27.8483938 42.6364675,27.7212435 42.9638961,27.7212435 C43.2914805,27.7212435 43.5991169,27.8483938 43.8308571,28.0793782 C44.0622857,28.3103627 44.1900779,28.6173575 44.1900779,28.9439378 C44.1900779,29.2705181 44.0622857,29.5776684 43.8307013,29.8084974 L43.8307013,29.8084974 Z" id="Shape"></path>
            <path d="M52.1672727,11.3566321 C52.7167792,7.5153886 51.9751169,4.45274611 50.0074286,2.49015544 C48.410961,0.897979275 46.1502857,0.11253886 43.2634286,0.157150259 C40.610961,0.197875648 37.5642078,0.941813472 34.2067013,2.36580311 C33.1517922,2.25093264 32.0847273,2.19062176 31.0081558,2.19062176 C23.2725195,2.19062176 16.0000519,5.19512953 10.5303896,10.6509326 C4.07890909,17.0856995 1.31548052,25.826114 2.23620779,34.2376166 C0.80025974,37.597772 0.0503376623,40.6464249 0.00919480519,43.2996373 C-0.0352207792,46.1707772 0.751636364,48.4339896 2.3481039,50.0263212 C3.89532468,51.5693782 6.12374026,52.3587047 8.87875325,52.3587047 C9.62649351,52.3587047 10.4152208,52.2971503 11.2374545,52.1801036 C16.6192208,57.2040933 23.6007273,59.9606736 31.0081558,59.9606736 C38.7437922,59.9606736 46.0162597,56.9560104 51.4859221,51.5005181 C62.5447792,40.4701554 62.7707532,22.6660104 52.1672727,11.3566321 L52.1672727,11.3566321 Z M49.1258182,3.36948187 C50.6459221,4.88564767 51.3001558,7.23948187 51.0456623,10.2225389 C47.0133506,6.36373057 42.0536104,3.79911917 36.6752727,2.74056995 C42.2568312,0.773316062 46.7272208,0.977253886 49.1258182,3.36948187 L49.1258182,3.36948187 Z M3.22924675,49.1469948 C0.825818182,46.7496373 0.625714286,42.2776166 2.61101299,36.6946632 C3.64519481,41.9358031 6.14181818,46.9434715 10.1001039,51.0607772 C7.10867532,51.3149223 4.74888312,50.6625389 3.22924675,49.1469948 L3.22924675,49.1469948 Z M50.6043117,50.6211917 C45.369974,55.8419689 38.4104416,58.7173057 31.008,58.7173057 C24.2357922,58.7173057 17.8351169,56.3093782 12.7860779,51.9018653 C15.7909091,51.2441969 19.1724156,49.8828497 22.6511688,47.9232124 C22.951013,47.7544041 23.0566753,47.3751295 22.8874286,47.0760622 C22.7181818,46.7771503 22.3380779,46.6714508 22.0382338,46.8404145 C18.3215065,48.9340415 14.7398961,50.3168394 11.6529351,50.8559067 C11.5726753,50.7777202 11.4914805,50.7006218 11.4118442,50.6211917 C0.60638961,39.8437306 0.60638961,22.3075648 11.4118442,11.5301036 C16.6461818,6.30932642 23.6057143,3.43414508 31.0081558,3.43414508 C38.4105974,3.43414508 45.3701299,6.30932642 50.6044675,11.5301036 C50.6841039,11.6095337 50.7614026,11.6906736 50.8399481,11.7710363 C50.2588052,15.0806736 48.7115844,18.9310881 46.3474286,22.9339896 C46.1727273,23.2297927 46.2715325,23.6109326 46.5681039,23.7853368 C46.6675325,23.8437824 46.7764675,23.8714508 46.8838442,23.8714508 C47.0973506,23.8714508 47.3054026,23.7618653 47.4215065,23.5652332 C49.6477403,19.796114 51.1759481,16.1393782 51.8875325,12.9018653 C61.3893506,23.7472539 60.962961,40.2893782 50.6043117,50.6211917 L50.6043117,50.6211917 Z" id="Shape"></path>
        </g>
    </g>
</svg>