<?xml version="1.0" encoding="UTF-8" standalone="no"?>
<svg width="18px" height="17px" viewBox="0 0 18 17" version="1.1" xmlns="http://www.w3.org/2000/svg" xmlns:xlink="http://www.w3.org/1999/xlink">
    <g id="Page-1" stroke="none" stroke-width="1" fill="none" fill-rule="evenodd">
        <g id="Return-Flight" fill="#FFFFFF">
            <path d="M7.98634286,16.3854147 C3.58251429,16.3854147 0,12.8022787 0,8.39768578 C0,3.9930929 3.58251429,0.409956852 7.98634286,0.409956852 C12.3901714,0.409956852 15.9726857,3.99360728 15.9726857,8.39768578 C15.9726857,8.64972952 15.7685143,8.85445076 15.516,8.85445076 C15.264,8.85445076 15.0593143,8.65024389 15.0593143,8.39768578 C15.0593143,4.496666 11.8861714,1.32245805 7.98582857,1.32245805 C4.08497143,1.32245805 0.911828571,4.496666 0.911828571,8.39768578 C0.911828571,12.2987056 4.08497143,15.4723991 7.98582857,15.4723991 C10.4811429,15.4723991 12.8185714,14.1345098 14.0862857,11.9813362 C14.2143429,11.7637556 14.4941143,11.6922575 14.7111429,11.8198225 C14.9281714,11.9473875 15.0001714,12.2272074 14.8731429,12.4447881 C13.4429143,14.8752098 10.8036,16.3854147 7.98634286,16.3854147 L7.98634286,16.3854147 Z" id="Shape"></path>
            <path d="M15.516,8.85445076 C15.4373143,8.85445076 15.3570857,8.83387576 15.2845714,8.79118264 L12.4246286,7.10197523 C12.2076,6.97389586 12.1356,6.69407588 12.2636571,6.47700964 C12.3922286,6.2599434 12.672,6.18793091 12.8890286,6.31652465 L15.3843429,7.79020894 L16.9904571,5.48940969 C17.1349714,5.28263096 17.4193714,5.23222221 17.6256,5.3762472 C17.8323429,5.52027219 17.8827429,5.80472155 17.7387429,6.01150029 L15.8904,8.65847389 C15.8019429,8.78552451 15.6605143,8.85445076 15.516,8.85445076 L15.516,8.85445076 Z" id="Shape"></path>
        </g>
    </g>
</svg>