<?xml version="1.0" encoding="UTF-8" standalone="no"?>
<svg width="24px" height="24px" viewBox="0 0 24 24" version="1.1" xmlns="http://www.w3.org/2000/svg" xmlns:xlink="http://www.w3.org/1999/xlink">
    <!-- Generator: Sketch 3.8.3 (29802) - http://www.bohemiancoding.com/sketch -->
    <title>Group 21</title>
    <desc>Created with Sketch.</desc>
    <defs></defs>
    <g id="Page-1" stroke="none" stroke-width="1" fill="none" fill-rule="evenodd">
        <g id="Group-21" fill="#FFFFFF">
            <g id="Group-2">
                <polygon id="Shape" points="9.32155986 17.9280435 9.02754098 17.6250386 14.394484 12.4128813 9.02754098 7.19988468 9.32155986 6.89737357 15 12.4128813"></polygon>
                <g id="Group-8-Copy">
                    <path d="M11.9339721,23.8674047 C5.35326512,23.8674047 0,18.5141395 0,11.9345116 C0,5.35434419 5.35326512,0.000539534884 11.9339721,0.000539534884 C18.5146791,0.000539534884 23.8679442,5.35380465 23.8679442,11.9345116 C23.8679442,18.5152186 18.5136,23.8674047 11.9339721,23.8674047 L11.9339721,23.8674047 Z M11.9339721,0.80984186 C5.8,0.80984186 0.809302326,5.80053953 0.809302326,11.9345116 C0.809302326,18.0684837 5.8,23.0591814 11.9339721,23.0591814 C18.0679442,23.0591814 23.0586419,18.0684837 23.0586419,11.9345116 C23.0586419,5.80053953 18.0679442,0.80984186 11.9339721,0.80984186 L11.9339721,0.80984186 Z" id="Shape"></path>
                </g>
            </g>
        </g>
    </g>
</svg>