<?xml version="1.0" encoding="UTF-8" standalone="no"?>
<svg class="dashboard-icons" version="1.1" id="Layer_1" xmlns="http://www.w3.org/2000/svg" xmlns:xlink="http://www.w3.org/1999/xlink" x="0px" y="0px"
  viewBox="-14 16 60 60" style="enable-background:new -14 16 60 60;" xml:space="preserve">
<g id="Page-1">
 <g id="Plan-a-Flight">
  <path id="Shape" class="svg-path" d="M29,42.5c-0.7,0-1.3,0.3-1.7,0.7l-4.9,4.9l-4.1,0l1-1c0.2-0.2,0.2-0.6,0-0.9
   c-0.2-0.2-0.6-0.2-0.9,0l-1.9,1.9l-8,0c-0.2,0-0.3,0.1-0.4,0.2l-1.4,1.4c-0.1,0.1-0.2,0.3-0.2,0.5c0,0.2,0.2,0.4,0.3,0.5l8.8,4.2
   l-1.3,1.3l-5.6,0h0c-0.2,0-0.3,0.1-0.4,0.2l-0.7,0.7c-0.1,0.1-0.2,0.3-0.2,0.5c0,0.2,0.2,0.4,0.3,0.5l3.6,1.7
   c-0.1,0.3-0.2,0.6-0.2,0.9c-0.1,0.5,0.1,1.1,0.4,1.5c0.4,0.4,0.9,0.6,1.4,0.6h0c0.1,0,0.2,0,0.2,0c0.3,0,0.6-0.1,0.9-0.2l1.7,3.5
   c0.1,0.2,0.2,0.3,0.4,0.3c0,0,0.1,0,0.1,0c0.1,0,0.3-0.1,0.4-0.1l0.8-0.7c0.1-0.1,0.2-0.3,0.2-0.5l0-5.5l1.2-1.2l4,8.3
   c0.1,0.2,0.2,0.3,0.4,0.3c0,0,0.1,0,0.1,0c0.1,0,0.3-0.1,0.4-0.1l1.6-1.3c0.1-0.1,0.2-0.3,0.2-0.5l0-7.9l1.9-1.9
   c0.2-0.2,0.2-0.6,0-0.9c-0.2-0.2-0.6-0.2-0.9,0l-1,1l0-3.8l5.2-5.2c0.5-0.5,0.7-1.1,0.7-1.7c0-0.7-0.3-1.3-0.7-1.7
   C30.2,42.7,29.6,42.5,29,42.5L29,42.5z M8,50l0.6-0.6l12.4,0l-4.7,4.7L8,50L8,50z M9,57.5l3.8,0L12.3,58c-0.2,0.2-0.4,0.5-0.6,0.8
   L9,57.5L9,57.5z M16.4,64.9l-1.3-2.7c0.3-0.2,0.5-0.4,0.8-0.6l0.5-0.5L16.4,64.9L16.4,64.9z M24.3,65l-0.7,0.6l-3.8-8l4.6-4.5
   L24.3,65L24.3,65z M29.8,45.8L16.6,59.1c0,0,0,0,0,0l-1.6,1.6c-0.6,0.6-1.3,0.9-2.1,1c0,0-0.1,0-0.1,0c-0.2,0-0.3-0.1-0.5-0.2
   c-0.1-0.1-0.2-0.3-0.1-0.5c0.1-0.8,0.5-1.5,1-2.1l14.9-14.8c0.2-0.2,0.5-0.4,0.9-0.4c0.3,0,0.6,0.1,0.9,0.4
   c0.2,0.2,0.4,0.5,0.4,0.9C30.2,45.3,30.1,45.6,29.8,45.8L29.8,45.8z"/>
  <path id="Shape_1_" class="svg-path" d="M38.2,27.4c0.5-3.8-0.2-6.9-2.2-8.9c-1.6-1.6-3.9-2.4-6.7-2.3c-2.7,0-5.7,0.8-9.1,2.2
   c-1.1-0.1-2.1-0.2-3.2-0.2c-7.7,0-15,3-20.5,8.5c-6.5,6.4-9.2,15.2-8.3,23.6c-1.4,3.4-2.2,6.4-2.2,9.1c0,2.9,0.7,5.1,2.3,6.7
   c1.5,1.5,3.8,2.3,6.5,2.3c0.7,0,1.5-0.1,2.4-0.2C2.6,73.2,9.6,76,17,76c7.7,0,15-3,20.5-8.5C48.5,56.5,48.8,38.7,38.2,27.4
   L38.2,27.4z M35.1,19.4c1.5,1.5,2.2,3.9,1.9,6.9c-4-3.9-9-6.4-14.4-7.5C28.3,16.8,32.7,17,35.1,19.4L35.1,19.4z M-10.8,65.1
   c-2.4-2.4-2.6-6.9-0.6-12.5c1,5.2,3.5,10.2,7.5,14.4C-6.9,67.3-9.3,66.7-10.8,65.1L-10.8,65.1z M36.6,66.6
   c-5.2,5.2-12.2,8.1-19.6,8.1c-6.8,0-13.2-2.4-18.2-6.8c3-0.7,6.4-2,9.9-4c0.3-0.2,0.4-0.5,0.2-0.8c-0.2-0.3-0.5-0.4-0.8-0.2
   c-3.7,2.1-7.3,3.5-10.4,4c-0.1-0.1-0.2-0.2-0.2-0.2c-10.8-10.8-10.8-28.3,0-39.1c5.2-5.2,12.2-8.1,19.6-8.1s14.4,2.9,19.6,8.1
   c0.1,0.1,0.2,0.2,0.2,0.2c-0.6,3.3-2.1,7.2-4.5,11.2c-0.2,0.3-0.1,0.7,0.2,0.9c0.1,0.1,0.2,0.1,0.3,0.1c0.2,0,0.4-0.1,0.5-0.3
   c2.2-3.8,3.8-7.4,4.5-10.7C47.4,39.7,47,56.3,36.6,66.6L36.6,66.6z"/>
 </g>
</g>
</svg>